%TF.GenerationSoftware,KiCad,Pcbnew,9.0.2*%
%TF.CreationDate,2025-07-02T14:59:06-07:00*%
%TF.ProjectId,Blinky,426c696e-6b79-42e6-9b69-6361645f7063,rev?*%
%TF.SameCoordinates,Original*%
%TF.FileFunction,Legend,Top*%
%TF.FilePolarity,Positive*%
%FSLAX46Y46*%
G04 Gerber Fmt 4.6, Leading zero omitted, Abs format (unit mm)*
G04 Created by KiCad (PCBNEW 9.0.2) date 2025-07-02 14:59:06*
%MOMM*%
%LPD*%
G01*
G04 APERTURE LIST*
%ADD10C,0.000000*%
%ADD11C,0.100000*%
%ADD12C,0.150000*%
%ADD13C,0.120000*%
G04 APERTURE END LIST*
D10*
G36*
X129300000Y-97404367D02*
G01*
X129320721Y-97405199D01*
X129338878Y-97406755D01*
X129355005Y-97409095D01*
X129369634Y-97412279D01*
X129383299Y-97416370D01*
X129396531Y-97421425D01*
X129409865Y-97427508D01*
X129423833Y-97434677D01*
X129455803Y-97452519D01*
X129463733Y-97469141D01*
X129470215Y-97485195D01*
X129475345Y-97500772D01*
X129479218Y-97515968D01*
X129481930Y-97530872D01*
X129483575Y-97545580D01*
X129484251Y-97560183D01*
X129484051Y-97574775D01*
X129483072Y-97589447D01*
X129481409Y-97604293D01*
X129479158Y-97619406D01*
X129476414Y-97634879D01*
X129462418Y-97702219D01*
X129488876Y-97728678D01*
X129491667Y-97782731D01*
X129492364Y-97802394D01*
X129492597Y-97820042D01*
X129492364Y-97837844D01*
X129491667Y-97857972D01*
X129488876Y-97913886D01*
X129471252Y-97931363D01*
X129463813Y-97938453D01*
X129457027Y-97944559D01*
X129453819Y-97947269D01*
X129450701Y-97949765D01*
X129447649Y-97952057D01*
X129444638Y-97954156D01*
X129441645Y-97956073D01*
X129438644Y-97957817D01*
X129435611Y-97959401D01*
X129432523Y-97960834D01*
X129429354Y-97962127D01*
X129426080Y-97963291D01*
X129422676Y-97964336D01*
X129419119Y-97965274D01*
X129415383Y-97966114D01*
X129411445Y-97966867D01*
X129402864Y-97968156D01*
X129393179Y-97969226D01*
X129382195Y-97970161D01*
X129355551Y-97971970D01*
X129092001Y-97966803D01*
X129092001Y-97887428D01*
X129197834Y-97887428D01*
X129356584Y-97887428D01*
X129409501Y-97781594D01*
X129392762Y-97761085D01*
X129385661Y-97752810D01*
X129379141Y-97745745D01*
X129376037Y-97742641D01*
X129373003Y-97739808D01*
X129370016Y-97737236D01*
X129367049Y-97734916D01*
X129364079Y-97732836D01*
X129361080Y-97730987D01*
X129358027Y-97729358D01*
X129354897Y-97727939D01*
X129351663Y-97726719D01*
X129348301Y-97725689D01*
X129344787Y-97724837D01*
X129341095Y-97724154D01*
X129337200Y-97723630D01*
X129333079Y-97723254D01*
X129328705Y-97723015D01*
X129324054Y-97722904D01*
X129313823Y-97723023D01*
X129302186Y-97723529D01*
X129273902Y-97725370D01*
X129197834Y-97728678D01*
X129197834Y-97887428D01*
X129092001Y-97887428D01*
X129092001Y-97728678D01*
X129092001Y-97649302D01*
X129197834Y-97649302D01*
X129356584Y-97622844D01*
X129356584Y-97517011D01*
X129351601Y-97510975D01*
X129347142Y-97505702D01*
X129343067Y-97501150D01*
X129341131Y-97499132D01*
X129339240Y-97497279D01*
X129337376Y-97495585D01*
X129335521Y-97494046D01*
X129333660Y-97492657D01*
X129331774Y-97491412D01*
X129329846Y-97490306D01*
X129327859Y-97489335D01*
X129325796Y-97488492D01*
X129323640Y-97487773D01*
X129321372Y-97487172D01*
X129318977Y-97486685D01*
X129316436Y-97486307D01*
X129313732Y-97486031D01*
X129310849Y-97485854D01*
X129307769Y-97485769D01*
X129304474Y-97485772D01*
X129300948Y-97485858D01*
X129293131Y-97486257D01*
X129284180Y-97486924D01*
X129262327Y-97488899D01*
X129197834Y-97490553D01*
X129197834Y-97649302D01*
X129092001Y-97649302D01*
X129092001Y-97490553D01*
X129092001Y-97411178D01*
X129180825Y-97407062D01*
X129248737Y-97404631D01*
X129276183Y-97404197D01*
X129300000Y-97404367D01*
G37*
G36*
X134938151Y-96867067D02*
G01*
X134961617Y-96868575D01*
X134979338Y-96873108D01*
X134995729Y-96878054D01*
X135010906Y-96883458D01*
X135024986Y-96889359D01*
X135038086Y-96895800D01*
X135050324Y-96902824D01*
X135061815Y-96910471D01*
X135072677Y-96918785D01*
X135083027Y-96927806D01*
X135092982Y-96937578D01*
X135102658Y-96948141D01*
X135112173Y-96959538D01*
X135121644Y-96971811D01*
X135131187Y-96985001D01*
X135140920Y-96999151D01*
X135150959Y-97014303D01*
X135157388Y-97037192D01*
X135162955Y-97059319D01*
X135167639Y-97080787D01*
X135171421Y-97101699D01*
X135174282Y-97122157D01*
X135176203Y-97142265D01*
X135177163Y-97162125D01*
X135177144Y-97181840D01*
X135176125Y-97201513D01*
X135174088Y-97221247D01*
X135171013Y-97241144D01*
X135166880Y-97261308D01*
X135161670Y-97281842D01*
X135155364Y-97302847D01*
X135147941Y-97324427D01*
X135139384Y-97346685D01*
X135098042Y-97411178D01*
X135045126Y-97411178D01*
X135124501Y-97543469D01*
X135087087Y-97545330D01*
X135073341Y-97545795D01*
X135060835Y-97545950D01*
X135048020Y-97545795D01*
X135033343Y-97545330D01*
X134992209Y-97543469D01*
X134939292Y-97490553D01*
X134919560Y-97483107D01*
X134899772Y-97475969D01*
X134879926Y-97469091D01*
X134860023Y-97462429D01*
X134820041Y-97449567D01*
X134779819Y-97437016D01*
X134767633Y-97430745D01*
X134756333Y-97424430D01*
X134745843Y-97418024D01*
X134736085Y-97411482D01*
X134726983Y-97404755D01*
X134718461Y-97397799D01*
X134710442Y-97390566D01*
X134702849Y-97383010D01*
X134695605Y-97375084D01*
X134688635Y-97366742D01*
X134681861Y-97357938D01*
X134675206Y-97348624D01*
X134668594Y-97338754D01*
X134661949Y-97328282D01*
X134655193Y-97317161D01*
X134648251Y-97305344D01*
X134644524Y-97285186D01*
X134641346Y-97265042D01*
X134638745Y-97244919D01*
X134636747Y-97224823D01*
X134635379Y-97204761D01*
X134635006Y-97194251D01*
X134740605Y-97194251D01*
X134740937Y-97210864D01*
X134741578Y-97228450D01*
X134745057Y-97248183D01*
X134746728Y-97256386D01*
X134748508Y-97263709D01*
X134750510Y-97270322D01*
X134751631Y-97273415D01*
X134752851Y-97276395D01*
X134754185Y-97279282D01*
X134755646Y-97282099D01*
X134757250Y-97284867D01*
X134759010Y-97287606D01*
X134760942Y-97290339D01*
X134763058Y-97293086D01*
X134765375Y-97295869D01*
X134767906Y-97298709D01*
X134773668Y-97304647D01*
X134780460Y-97311070D01*
X134788397Y-97318150D01*
X134797594Y-97326056D01*
X134820230Y-97345032D01*
X134886376Y-97384719D01*
X134912243Y-97376449D01*
X134936218Y-97368234D01*
X134947578Y-97363963D01*
X134958564Y-97359486D01*
X134969208Y-97354729D01*
X134979543Y-97349617D01*
X134989602Y-97344078D01*
X134999418Y-97338038D01*
X135009024Y-97331424D01*
X135018453Y-97324161D01*
X135027736Y-97316176D01*
X135036908Y-97307395D01*
X135046001Y-97297746D01*
X135055047Y-97287154D01*
X135059151Y-97270632D01*
X135062427Y-97254559D01*
X135064918Y-97238871D01*
X135066666Y-97223503D01*
X135067713Y-97208392D01*
X135068102Y-97193473D01*
X135067876Y-97178682D01*
X135067076Y-97163955D01*
X135065745Y-97149228D01*
X135063926Y-97134438D01*
X135061661Y-97119519D01*
X135058991Y-97104408D01*
X135052612Y-97073353D01*
X135045126Y-97040761D01*
X135034823Y-97023201D01*
X135030469Y-97015995D01*
X135026490Y-97009683D01*
X135022771Y-97004149D01*
X135019195Y-96999278D01*
X135015647Y-96994952D01*
X135012010Y-96991055D01*
X135008167Y-96987472D01*
X135004002Y-96984085D01*
X134999400Y-96980779D01*
X134994244Y-96977437D01*
X134988417Y-96973943D01*
X134981803Y-96970181D01*
X134965751Y-96961386D01*
X134931604Y-96958253D01*
X134917549Y-96957176D01*
X134905184Y-96956502D01*
X134894265Y-96956291D01*
X134884551Y-96956599D01*
X134875800Y-96957486D01*
X134867769Y-96959009D01*
X134860216Y-96961226D01*
X134852899Y-96964196D01*
X134845576Y-96967976D01*
X134838004Y-96972625D01*
X134829942Y-96978202D01*
X134821146Y-96984763D01*
X134800386Y-97001073D01*
X134790396Y-97015829D01*
X134781515Y-97029989D01*
X134773684Y-97043666D01*
X134766848Y-97056971D01*
X134760949Y-97070018D01*
X134755929Y-97082918D01*
X134751733Y-97095782D01*
X134748302Y-97108723D01*
X134745580Y-97121853D01*
X134743510Y-97135283D01*
X134742034Y-97149126D01*
X134741096Y-97163494D01*
X134740639Y-97178498D01*
X134740605Y-97194251D01*
X134635006Y-97194251D01*
X134634668Y-97184740D01*
X134634642Y-97164767D01*
X134635327Y-97144847D01*
X134636750Y-97124989D01*
X134638938Y-97105199D01*
X134641918Y-97085483D01*
X134645717Y-97065849D01*
X134650363Y-97046302D01*
X134655881Y-97026850D01*
X134662299Y-97007500D01*
X134669645Y-96988258D01*
X134676948Y-96977963D01*
X134684311Y-96968218D01*
X134691739Y-96959012D01*
X134699237Y-96950330D01*
X134706812Y-96942160D01*
X134714469Y-96934490D01*
X134722215Y-96927306D01*
X134730054Y-96920596D01*
X134737994Y-96914348D01*
X134746039Y-96908548D01*
X134754196Y-96903183D01*
X134762471Y-96898241D01*
X134770868Y-96893710D01*
X134779395Y-96889576D01*
X134788057Y-96885826D01*
X134796859Y-96882449D01*
X134805808Y-96879430D01*
X134814910Y-96876758D01*
X134824170Y-96874419D01*
X134833594Y-96872402D01*
X134852959Y-96869278D01*
X134873050Y-96867285D01*
X134893914Y-96866320D01*
X134915599Y-96866281D01*
X134938151Y-96867067D01*
G37*
G36*
X129449188Y-96600891D02*
G01*
X129475957Y-96672205D01*
X129501278Y-96740417D01*
X129524791Y-96803398D01*
X129530403Y-96820717D01*
X129534620Y-96834377D01*
X129536268Y-96840220D01*
X129537642Y-96845610D01*
X129538767Y-96850701D01*
X129539667Y-96855648D01*
X129540369Y-96860603D01*
X129540896Y-96865721D01*
X129541274Y-96871156D01*
X129541527Y-96877062D01*
X129541759Y-96890901D01*
X129541793Y-96908469D01*
X129435959Y-96908469D01*
X129409501Y-96776178D01*
X129171376Y-96776178D01*
X129144918Y-96908469D01*
X129039084Y-96908469D01*
X129042426Y-96883783D01*
X129046302Y-96859547D01*
X129050697Y-96835715D01*
X129055590Y-96812240D01*
X129060963Y-96789076D01*
X129066800Y-96766175D01*
X129079786Y-96720976D01*
X129087690Y-96696803D01*
X129224293Y-96696803D01*
X129356584Y-96696803D01*
X129303668Y-96485136D01*
X129277209Y-96485136D01*
X129265389Y-96512829D01*
X129254914Y-96538725D01*
X129250203Y-96551225D01*
X129245855Y-96563545D01*
X129241878Y-96575778D01*
X129238283Y-96588013D01*
X129235077Y-96600340D01*
X129232269Y-96612850D01*
X129229869Y-96625633D01*
X129227885Y-96638779D01*
X129226327Y-96652379D01*
X129225203Y-96666523D01*
X129224522Y-96681300D01*
X129224293Y-96696803D01*
X129087690Y-96696803D01*
X129094403Y-96676270D01*
X129110504Y-96631681D01*
X129127942Y-96586836D01*
X129146571Y-96541360D01*
X129169154Y-96486169D01*
X129196633Y-96419470D01*
X129224293Y-96352844D01*
X129356584Y-96352844D01*
X129449188Y-96600891D01*
G37*
G36*
X132194037Y-96103823D02*
G01*
X132248603Y-96107161D01*
X132301905Y-96112771D01*
X132353992Y-96120682D01*
X132404914Y-96130923D01*
X132454719Y-96143525D01*
X132503455Y-96158515D01*
X132551171Y-96175924D01*
X132597915Y-96195780D01*
X132643736Y-96218113D01*
X132688683Y-96242952D01*
X132732804Y-96270327D01*
X132776148Y-96300265D01*
X132818763Y-96332798D01*
X132860697Y-96367953D01*
X132902001Y-96405761D01*
X132929415Y-96435433D01*
X132955205Y-96465293D01*
X132979455Y-96495398D01*
X133002251Y-96525806D01*
X133023676Y-96556572D01*
X133043815Y-96587753D01*
X133062752Y-96619408D01*
X133080573Y-96651591D01*
X133097360Y-96684360D01*
X133113199Y-96717772D01*
X133128173Y-96751884D01*
X133142369Y-96786753D01*
X133155869Y-96822434D01*
X133168758Y-96858986D01*
X133181121Y-96896465D01*
X133193043Y-96934928D01*
X133245959Y-96908469D01*
X133295702Y-96902750D01*
X133319326Y-96900567D01*
X133342235Y-96898991D01*
X133364517Y-96898137D01*
X133386259Y-96898122D01*
X133407548Y-96899062D01*
X133428472Y-96901073D01*
X133449119Y-96904271D01*
X133469576Y-96908772D01*
X133489930Y-96914693D01*
X133510269Y-96922150D01*
X133530681Y-96931258D01*
X133551252Y-96942134D01*
X133572071Y-96954894D01*
X133593225Y-96969654D01*
X133609599Y-96993280D01*
X133616225Y-97003144D01*
X133621905Y-97012003D01*
X133626713Y-97020077D01*
X133630722Y-97027587D01*
X133634004Y-97034752D01*
X133635396Y-97038275D01*
X133636633Y-97041794D01*
X133637724Y-97045338D01*
X133638680Y-97048933D01*
X133640218Y-97056390D01*
X133641320Y-97064384D01*
X133642059Y-97073136D01*
X133642507Y-97082867D01*
X133642737Y-97093797D01*
X133642834Y-97120136D01*
X134489501Y-97120136D01*
X134489501Y-97225969D01*
X133642834Y-97225969D01*
X133616376Y-97331803D01*
X133603689Y-97351543D01*
X133598296Y-97359708D01*
X133593328Y-97366943D01*
X133588632Y-97373402D01*
X133584052Y-97379242D01*
X133579434Y-97384616D01*
X133574621Y-97389680D01*
X133569460Y-97394589D01*
X133563795Y-97399499D01*
X133557471Y-97404563D01*
X133550333Y-97409937D01*
X133542227Y-97415777D01*
X133532996Y-97422236D01*
X133510542Y-97437636D01*
X133470274Y-97442116D01*
X133429663Y-97445683D01*
X133409310Y-97446919D01*
X133388965Y-97447681D01*
X133368663Y-97447886D01*
X133348434Y-97447453D01*
X133328309Y-97446300D01*
X133308322Y-97444344D01*
X133288502Y-97441505D01*
X133268883Y-97437699D01*
X133249496Y-97432846D01*
X133230372Y-97426862D01*
X133211544Y-97419667D01*
X133193043Y-97411178D01*
X133176402Y-97466471D01*
X133157823Y-97519861D01*
X133137697Y-97571334D01*
X133115973Y-97620952D01*
X133092596Y-97668779D01*
X133067514Y-97714877D01*
X133040674Y-97759306D01*
X133012023Y-97802130D01*
X132981506Y-97843411D01*
X132949072Y-97883210D01*
X132914667Y-97921591D01*
X132878238Y-97958614D01*
X132839733Y-97994343D01*
X132799096Y-98028839D01*
X132756277Y-98062164D01*
X132711221Y-98094382D01*
X132663876Y-98125553D01*
X132626041Y-98142926D01*
X132588583Y-98158637D01*
X132551416Y-98172753D01*
X132514452Y-98185340D01*
X132477603Y-98196466D01*
X132440784Y-98206200D01*
X132403906Y-98214607D01*
X132366883Y-98221755D01*
X132329628Y-98227713D01*
X132292054Y-98232546D01*
X132254073Y-98236324D01*
X132215598Y-98239112D01*
X132176543Y-98240978D01*
X132136821Y-98241990D01*
X132055024Y-98241721D01*
X131967292Y-98241267D01*
X131830236Y-98239921D01*
X131693186Y-98238000D01*
X131505962Y-98236554D01*
X131277936Y-98234355D01*
X131049918Y-98231386D01*
X131049918Y-98072636D01*
X131208668Y-98072636D01*
X131694839Y-98077597D01*
X131846600Y-98079787D01*
X131971850Y-98079116D01*
X132032961Y-98077060D01*
X132093078Y-98073495D01*
X132152212Y-98068147D01*
X132210373Y-98060744D01*
X132267572Y-98051014D01*
X132323820Y-98038684D01*
X132379128Y-98023481D01*
X132433507Y-98005133D01*
X132486968Y-97983367D01*
X132539520Y-97957911D01*
X132591177Y-97928493D01*
X132641947Y-97894839D01*
X132691842Y-97856678D01*
X132740874Y-97813737D01*
X132773512Y-97777470D01*
X132804263Y-97740369D01*
X132833089Y-97702429D01*
X132859950Y-97663648D01*
X132884808Y-97624022D01*
X132907626Y-97583551D01*
X132928363Y-97542229D01*
X132946983Y-97500054D01*
X132963446Y-97457024D01*
X132977714Y-97413135D01*
X132989748Y-97368385D01*
X132999510Y-97322770D01*
X133006962Y-97276288D01*
X133012064Y-97228936D01*
X133014780Y-97180710D01*
X133014825Y-97173053D01*
X133239344Y-97173053D01*
X133239448Y-97180533D01*
X133239758Y-97188245D01*
X133240998Y-97205299D01*
X133243065Y-97226073D01*
X133245959Y-97252428D01*
X133262583Y-97272647D01*
X133269625Y-97280821D01*
X133276081Y-97287821D01*
X133279148Y-97290908D01*
X133282142Y-97293733D01*
X133285086Y-97296309D01*
X133288003Y-97298646D01*
X133290920Y-97300754D01*
X133293859Y-97302646D01*
X133296844Y-97304330D01*
X133299901Y-97305820D01*
X133303054Y-97307125D01*
X133306325Y-97308256D01*
X133309741Y-97309224D01*
X133313325Y-97310040D01*
X133317101Y-97310716D01*
X133321093Y-97311261D01*
X133325326Y-97311688D01*
X133329824Y-97312005D01*
X133339711Y-97312360D01*
X133350949Y-97312412D01*
X133378251Y-97311959D01*
X133405552Y-97312412D01*
X133416790Y-97312360D01*
X133426678Y-97312005D01*
X133435409Y-97311261D01*
X133443177Y-97310040D01*
X133446761Y-97309224D01*
X133450176Y-97308256D01*
X133453448Y-97307125D01*
X133456600Y-97305820D01*
X133459657Y-97304330D01*
X133462643Y-97302646D01*
X133465582Y-97300754D01*
X133468498Y-97298646D01*
X133471416Y-97296309D01*
X133474360Y-97293733D01*
X133480421Y-97287821D01*
X133486876Y-97280821D01*
X133493919Y-97272647D01*
X133510542Y-97252428D01*
X133513436Y-97226073D01*
X133515504Y-97205299D01*
X133516744Y-97188245D01*
X133517054Y-97180533D01*
X133517157Y-97173053D01*
X133517054Y-97165572D01*
X133516744Y-97157860D01*
X133515504Y-97140807D01*
X133513436Y-97120033D01*
X133510542Y-97093678D01*
X133493919Y-97073458D01*
X133486876Y-97065284D01*
X133480421Y-97058284D01*
X133477353Y-97055198D01*
X133474360Y-97052372D01*
X133471416Y-97049796D01*
X133468498Y-97047459D01*
X133465582Y-97045351D01*
X133462643Y-97043460D01*
X133459657Y-97041775D01*
X133456600Y-97040285D01*
X133453448Y-97038981D01*
X133450176Y-97037849D01*
X133446761Y-97036881D01*
X133443177Y-97036065D01*
X133439401Y-97035389D01*
X133435409Y-97034844D01*
X133431176Y-97034418D01*
X133426678Y-97034100D01*
X133416790Y-97033745D01*
X133405552Y-97033693D01*
X133378251Y-97034146D01*
X133350949Y-97033693D01*
X133339711Y-97033745D01*
X133329824Y-97034100D01*
X133321093Y-97034844D01*
X133313325Y-97036065D01*
X133309741Y-97036881D01*
X133306325Y-97037849D01*
X133303054Y-97038981D01*
X133299901Y-97040285D01*
X133296844Y-97041775D01*
X133293859Y-97043460D01*
X133290920Y-97045351D01*
X133288003Y-97047459D01*
X133285086Y-97049796D01*
X133282142Y-97052372D01*
X133276081Y-97058284D01*
X133269625Y-97065284D01*
X133262583Y-97073458D01*
X133245959Y-97093678D01*
X133243065Y-97120033D01*
X133240998Y-97140807D01*
X133239758Y-97157860D01*
X133239448Y-97165572D01*
X133239344Y-97173053D01*
X133014825Y-97173053D01*
X133015069Y-97131608D01*
X133009136Y-97085399D01*
X133001748Y-97039746D01*
X132992852Y-96994697D01*
X132982399Y-96950299D01*
X132970335Y-96906597D01*
X132956612Y-96863637D01*
X132941176Y-96821468D01*
X132923978Y-96780134D01*
X132904966Y-96739683D01*
X132884089Y-96700161D01*
X132861295Y-96661614D01*
X132836534Y-96624088D01*
X132809754Y-96587632D01*
X132780905Y-96552290D01*
X132749935Y-96518109D01*
X132716792Y-96485136D01*
X132674608Y-96454572D01*
X132632442Y-96426735D01*
X132590206Y-96401526D01*
X132547810Y-96378848D01*
X132505164Y-96358601D01*
X132462181Y-96340689D01*
X132418771Y-96325012D01*
X132374845Y-96311472D01*
X132330313Y-96299972D01*
X132285086Y-96290411D01*
X132239076Y-96282694D01*
X132192193Y-96276720D01*
X132144348Y-96272392D01*
X132095452Y-96269612D01*
X132045415Y-96268281D01*
X131994149Y-96268302D01*
X131933326Y-96268463D01*
X131822350Y-96269158D01*
X131711376Y-96270162D01*
X131208668Y-96273469D01*
X131208668Y-98072636D01*
X131049918Y-98072636D01*
X131049918Y-97755136D01*
X129727001Y-97755136D01*
X129727001Y-97649302D01*
X131049918Y-97649302D01*
X131049918Y-96696803D01*
X129727001Y-96696803D01*
X129727001Y-96590969D01*
X131049918Y-96590969D01*
X131049918Y-96273469D01*
X131049918Y-96114719D01*
X131324524Y-96111302D01*
X131599141Y-96108906D01*
X131692406Y-96107967D01*
X131785667Y-96106735D01*
X131920343Y-96105248D01*
X132055024Y-96104384D01*
X132138161Y-96102729D01*
X132194037Y-96103823D01*
G37*
D11*
X126241979Y-86446088D02*
X126241979Y-85017516D01*
X127670551Y-85827040D02*
X128146741Y-85827040D01*
X127575313Y-86112755D02*
X127908646Y-85112755D01*
X127908646Y-85112755D02*
X128241979Y-86112755D01*
X129575313Y-86446088D02*
X129575313Y-85017516D01*
X131384837Y-85588945D02*
X131527694Y-85636564D01*
X131527694Y-85636564D02*
X131575313Y-85684183D01*
X131575313Y-85684183D02*
X131622932Y-85779421D01*
X131622932Y-85779421D02*
X131622932Y-85922278D01*
X131622932Y-85922278D02*
X131575313Y-86017516D01*
X131575313Y-86017516D02*
X131527694Y-86065136D01*
X131527694Y-86065136D02*
X131432456Y-86112755D01*
X131432456Y-86112755D02*
X131051504Y-86112755D01*
X131051504Y-86112755D02*
X131051504Y-85112755D01*
X131051504Y-85112755D02*
X131384837Y-85112755D01*
X131384837Y-85112755D02*
X131480075Y-85160374D01*
X131480075Y-85160374D02*
X131527694Y-85207993D01*
X131527694Y-85207993D02*
X131575313Y-85303231D01*
X131575313Y-85303231D02*
X131575313Y-85398469D01*
X131575313Y-85398469D02*
X131527694Y-85493707D01*
X131527694Y-85493707D02*
X131480075Y-85541326D01*
X131480075Y-85541326D02*
X131384837Y-85588945D01*
X131384837Y-85588945D02*
X131051504Y-85588945D01*
X133051504Y-86446088D02*
X133051504Y-85017516D01*
X134480076Y-85827040D02*
X134956266Y-85827040D01*
X134384838Y-86112755D02*
X134718171Y-85112755D01*
X134718171Y-85112755D02*
X135051504Y-86112755D01*
X135765790Y-86112755D02*
X135765790Y-85350850D01*
X135575314Y-85541326D02*
X135765790Y-85350850D01*
X135765790Y-85350850D02*
X135956266Y-85541326D01*
X136956266Y-85588945D02*
X137099123Y-85636564D01*
X137099123Y-85636564D02*
X137146742Y-85684183D01*
X137146742Y-85684183D02*
X137194361Y-85779421D01*
X137194361Y-85779421D02*
X137194361Y-85922278D01*
X137194361Y-85922278D02*
X137146742Y-86017516D01*
X137146742Y-86017516D02*
X137099123Y-86065136D01*
X137099123Y-86065136D02*
X137003885Y-86112755D01*
X137003885Y-86112755D02*
X136622933Y-86112755D01*
X136622933Y-86112755D02*
X136622933Y-85112755D01*
X136622933Y-85112755D02*
X136956266Y-85112755D01*
X136956266Y-85112755D02*
X137051504Y-85160374D01*
X137051504Y-85160374D02*
X137099123Y-85207993D01*
X137099123Y-85207993D02*
X137146742Y-85303231D01*
X137146742Y-85303231D02*
X137146742Y-85398469D01*
X137146742Y-85398469D02*
X137099123Y-85493707D01*
X137099123Y-85493707D02*
X137051504Y-85541326D01*
X137051504Y-85541326D02*
X136956266Y-85588945D01*
X136956266Y-85588945D02*
X136622933Y-85588945D01*
X126241979Y-88056032D02*
X126241979Y-86627460D01*
X126956265Y-87341746D02*
X127718170Y-87341746D01*
X128194360Y-87341746D02*
X128956265Y-87341746D01*
X129670550Y-88056032D02*
X129670550Y-86627460D01*
X130384836Y-87341746D02*
X131146741Y-87341746D01*
X131622931Y-87341746D02*
X132384836Y-87341746D01*
X133099121Y-88056032D02*
X133099121Y-86627460D01*
X133813407Y-87341746D02*
X134575312Y-87341746D01*
X135051502Y-87341746D02*
X135813407Y-87341746D01*
X136289597Y-87341746D02*
X137051502Y-87341746D01*
X126241979Y-89665976D02*
X126241979Y-88237404D01*
X127908646Y-88332643D02*
X128003884Y-88332643D01*
X128003884Y-88332643D02*
X128099122Y-88380262D01*
X128099122Y-88380262D02*
X128146741Y-88427881D01*
X128146741Y-88427881D02*
X128194360Y-88523119D01*
X128194360Y-88523119D02*
X128241979Y-88713595D01*
X128241979Y-88713595D02*
X128241979Y-88951690D01*
X128241979Y-88951690D02*
X128194360Y-89142166D01*
X128194360Y-89142166D02*
X128146741Y-89237404D01*
X128146741Y-89237404D02*
X128099122Y-89285024D01*
X128099122Y-89285024D02*
X128003884Y-89332643D01*
X128003884Y-89332643D02*
X127908646Y-89332643D01*
X127908646Y-89332643D02*
X127813408Y-89285024D01*
X127813408Y-89285024D02*
X127765789Y-89237404D01*
X127765789Y-89237404D02*
X127718170Y-89142166D01*
X127718170Y-89142166D02*
X127670551Y-88951690D01*
X127670551Y-88951690D02*
X127670551Y-88713595D01*
X127670551Y-88713595D02*
X127718170Y-88523119D01*
X127718170Y-88523119D02*
X127765789Y-88427881D01*
X127765789Y-88427881D02*
X127813408Y-88380262D01*
X127813408Y-88380262D02*
X127908646Y-88332643D01*
X129670551Y-89665976D02*
X129670551Y-88237404D01*
X131337218Y-88332643D02*
X131432456Y-88332643D01*
X131432456Y-88332643D02*
X131527694Y-88380262D01*
X131527694Y-88380262D02*
X131575313Y-88427881D01*
X131575313Y-88427881D02*
X131622932Y-88523119D01*
X131622932Y-88523119D02*
X131670551Y-88713595D01*
X131670551Y-88713595D02*
X131670551Y-88951690D01*
X131670551Y-88951690D02*
X131622932Y-89142166D01*
X131622932Y-89142166D02*
X131575313Y-89237404D01*
X131575313Y-89237404D02*
X131527694Y-89285024D01*
X131527694Y-89285024D02*
X131432456Y-89332643D01*
X131432456Y-89332643D02*
X131337218Y-89332643D01*
X131337218Y-89332643D02*
X131241980Y-89285024D01*
X131241980Y-89285024D02*
X131194361Y-89237404D01*
X131194361Y-89237404D02*
X131146742Y-89142166D01*
X131146742Y-89142166D02*
X131099123Y-88951690D01*
X131099123Y-88951690D02*
X131099123Y-88713595D01*
X131099123Y-88713595D02*
X131146742Y-88523119D01*
X131146742Y-88523119D02*
X131194361Y-88427881D01*
X131194361Y-88427881D02*
X131241980Y-88380262D01*
X131241980Y-88380262D02*
X131337218Y-88332643D01*
X133099123Y-89665976D02*
X133099123Y-88237404D01*
X135861028Y-89332643D02*
X135289600Y-89332643D01*
X135575314Y-89332643D02*
X135575314Y-88332643D01*
X135575314Y-88332643D02*
X135480076Y-88475500D01*
X135480076Y-88475500D02*
X135384838Y-88570738D01*
X135384838Y-88570738D02*
X135289600Y-88618357D01*
X126241979Y-91275920D02*
X126241979Y-89847348D01*
X127908646Y-89942587D02*
X128003884Y-89942587D01*
X128003884Y-89942587D02*
X128099122Y-89990206D01*
X128099122Y-89990206D02*
X128146741Y-90037825D01*
X128146741Y-90037825D02*
X128194360Y-90133063D01*
X128194360Y-90133063D02*
X128241979Y-90323539D01*
X128241979Y-90323539D02*
X128241979Y-90561634D01*
X128241979Y-90561634D02*
X128194360Y-90752110D01*
X128194360Y-90752110D02*
X128146741Y-90847348D01*
X128146741Y-90847348D02*
X128099122Y-90894968D01*
X128099122Y-90894968D02*
X128003884Y-90942587D01*
X128003884Y-90942587D02*
X127908646Y-90942587D01*
X127908646Y-90942587D02*
X127813408Y-90894968D01*
X127813408Y-90894968D02*
X127765789Y-90847348D01*
X127765789Y-90847348D02*
X127718170Y-90752110D01*
X127718170Y-90752110D02*
X127670551Y-90561634D01*
X127670551Y-90561634D02*
X127670551Y-90323539D01*
X127670551Y-90323539D02*
X127718170Y-90133063D01*
X127718170Y-90133063D02*
X127765789Y-90037825D01*
X127765789Y-90037825D02*
X127813408Y-89990206D01*
X127813408Y-89990206D02*
X127908646Y-89942587D01*
X129670551Y-91275920D02*
X129670551Y-89847348D01*
X131670551Y-90942587D02*
X131099123Y-90942587D01*
X131384837Y-90942587D02*
X131384837Y-89942587D01*
X131384837Y-89942587D02*
X131289599Y-90085444D01*
X131289599Y-90085444D02*
X131194361Y-90180682D01*
X131194361Y-90180682D02*
X131099123Y-90228301D01*
X133099123Y-91275920D02*
X133099123Y-89847348D01*
X135861028Y-90942587D02*
X135289600Y-90942587D01*
X135575314Y-90942587D02*
X135575314Y-89942587D01*
X135575314Y-89942587D02*
X135480076Y-90085444D01*
X135480076Y-90085444D02*
X135384838Y-90180682D01*
X135384838Y-90180682D02*
X135289600Y-90228301D01*
X126241979Y-92885864D02*
X126241979Y-91457292D01*
X128241979Y-92552531D02*
X127670551Y-92552531D01*
X127956265Y-92552531D02*
X127956265Y-91552531D01*
X127956265Y-91552531D02*
X127861027Y-91695388D01*
X127861027Y-91695388D02*
X127765789Y-91790626D01*
X127765789Y-91790626D02*
X127670551Y-91838245D01*
X129670551Y-92885864D02*
X129670551Y-91457292D01*
X131337218Y-91552531D02*
X131432456Y-91552531D01*
X131432456Y-91552531D02*
X131527694Y-91600150D01*
X131527694Y-91600150D02*
X131575313Y-91647769D01*
X131575313Y-91647769D02*
X131622932Y-91743007D01*
X131622932Y-91743007D02*
X131670551Y-91933483D01*
X131670551Y-91933483D02*
X131670551Y-92171578D01*
X131670551Y-92171578D02*
X131622932Y-92362054D01*
X131622932Y-92362054D02*
X131575313Y-92457292D01*
X131575313Y-92457292D02*
X131527694Y-92504912D01*
X131527694Y-92504912D02*
X131432456Y-92552531D01*
X131432456Y-92552531D02*
X131337218Y-92552531D01*
X131337218Y-92552531D02*
X131241980Y-92504912D01*
X131241980Y-92504912D02*
X131194361Y-92457292D01*
X131194361Y-92457292D02*
X131146742Y-92362054D01*
X131146742Y-92362054D02*
X131099123Y-92171578D01*
X131099123Y-92171578D02*
X131099123Y-91933483D01*
X131099123Y-91933483D02*
X131146742Y-91743007D01*
X131146742Y-91743007D02*
X131194361Y-91647769D01*
X131194361Y-91647769D02*
X131241980Y-91600150D01*
X131241980Y-91600150D02*
X131337218Y-91552531D01*
X133099123Y-92885864D02*
X133099123Y-91457292D01*
X135861028Y-92552531D02*
X135289600Y-92552531D01*
X135575314Y-92552531D02*
X135575314Y-91552531D01*
X135575314Y-91552531D02*
X135480076Y-91695388D01*
X135480076Y-91695388D02*
X135384838Y-91790626D01*
X135384838Y-91790626D02*
X135289600Y-91838245D01*
X126241979Y-94495808D02*
X126241979Y-93067236D01*
X128241979Y-94162475D02*
X127670551Y-94162475D01*
X127956265Y-94162475D02*
X127956265Y-93162475D01*
X127956265Y-93162475D02*
X127861027Y-93305332D01*
X127861027Y-93305332D02*
X127765789Y-93400570D01*
X127765789Y-93400570D02*
X127670551Y-93448189D01*
X129670551Y-94495808D02*
X129670551Y-93067236D01*
X131670551Y-94162475D02*
X131099123Y-94162475D01*
X131384837Y-94162475D02*
X131384837Y-93162475D01*
X131384837Y-93162475D02*
X131289599Y-93305332D01*
X131289599Y-93305332D02*
X131194361Y-93400570D01*
X131194361Y-93400570D02*
X131099123Y-93448189D01*
X133099123Y-94495808D02*
X133099123Y-93067236D01*
X135527695Y-93162475D02*
X135622933Y-93162475D01*
X135622933Y-93162475D02*
X135718171Y-93210094D01*
X135718171Y-93210094D02*
X135765790Y-93257713D01*
X135765790Y-93257713D02*
X135813409Y-93352951D01*
X135813409Y-93352951D02*
X135861028Y-93543427D01*
X135861028Y-93543427D02*
X135861028Y-93781522D01*
X135861028Y-93781522D02*
X135813409Y-93971998D01*
X135813409Y-93971998D02*
X135765790Y-94067236D01*
X135765790Y-94067236D02*
X135718171Y-94114856D01*
X135718171Y-94114856D02*
X135622933Y-94162475D01*
X135622933Y-94162475D02*
X135527695Y-94162475D01*
X135527695Y-94162475D02*
X135432457Y-94114856D01*
X135432457Y-94114856D02*
X135384838Y-94067236D01*
X135384838Y-94067236D02*
X135337219Y-93971998D01*
X135337219Y-93971998D02*
X135289600Y-93781522D01*
X135289600Y-93781522D02*
X135289600Y-93543427D01*
X135289600Y-93543427D02*
X135337219Y-93352951D01*
X135337219Y-93352951D02*
X135384838Y-93257713D01*
X135384838Y-93257713D02*
X135432457Y-93210094D01*
X135432457Y-93210094D02*
X135527695Y-93162475D01*
X115903884Y-102272419D02*
X115903884Y-101272419D01*
X115903884Y-101272419D02*
X116475312Y-102272419D01*
X116475312Y-102272419D02*
X116475312Y-101272419D01*
X116903884Y-101986704D02*
X117380074Y-101986704D01*
X116808646Y-102272419D02*
X117141979Y-101272419D01*
X117141979Y-101272419D02*
X117475312Y-102272419D01*
X117808646Y-102272419D02*
X117808646Y-101272419D01*
X117808646Y-101272419D02*
X118380074Y-102272419D01*
X118380074Y-102272419D02*
X118380074Y-101272419D01*
X118856265Y-102272419D02*
X118856265Y-101272419D01*
X118856265Y-101272419D02*
X119094360Y-101272419D01*
X119094360Y-101272419D02*
X119237217Y-101320038D01*
X119237217Y-101320038D02*
X119332455Y-101415276D01*
X119332455Y-101415276D02*
X119380074Y-101510514D01*
X119380074Y-101510514D02*
X119427693Y-101700990D01*
X119427693Y-101700990D02*
X119427693Y-101843847D01*
X119427693Y-101843847D02*
X119380074Y-102034323D01*
X119380074Y-102034323D02*
X119332455Y-102129561D01*
X119332455Y-102129561D02*
X119237217Y-102224800D01*
X119237217Y-102224800D02*
X119094360Y-102272419D01*
X119094360Y-102272419D02*
X118856265Y-102272419D01*
X121141979Y-101320038D02*
X121046741Y-101272419D01*
X121046741Y-101272419D02*
X120903884Y-101272419D01*
X120903884Y-101272419D02*
X120761027Y-101320038D01*
X120761027Y-101320038D02*
X120665789Y-101415276D01*
X120665789Y-101415276D02*
X120618170Y-101510514D01*
X120618170Y-101510514D02*
X120570551Y-101700990D01*
X120570551Y-101700990D02*
X120570551Y-101843847D01*
X120570551Y-101843847D02*
X120618170Y-102034323D01*
X120618170Y-102034323D02*
X120665789Y-102129561D01*
X120665789Y-102129561D02*
X120761027Y-102224800D01*
X120761027Y-102224800D02*
X120903884Y-102272419D01*
X120903884Y-102272419D02*
X120999122Y-102272419D01*
X120999122Y-102272419D02*
X121141979Y-102224800D01*
X121141979Y-102224800D02*
X121189598Y-102177180D01*
X121189598Y-102177180D02*
X121189598Y-101843847D01*
X121189598Y-101843847D02*
X120999122Y-101843847D01*
X122046741Y-102272419D02*
X122046741Y-101748609D01*
X122046741Y-101748609D02*
X121999122Y-101653371D01*
X121999122Y-101653371D02*
X121903884Y-101605752D01*
X121903884Y-101605752D02*
X121713408Y-101605752D01*
X121713408Y-101605752D02*
X121618170Y-101653371D01*
X122046741Y-102224800D02*
X121951503Y-102272419D01*
X121951503Y-102272419D02*
X121713408Y-102272419D01*
X121713408Y-102272419D02*
X121618170Y-102224800D01*
X121618170Y-102224800D02*
X121570551Y-102129561D01*
X121570551Y-102129561D02*
X121570551Y-102034323D01*
X121570551Y-102034323D02*
X121618170Y-101939085D01*
X121618170Y-101939085D02*
X121713408Y-101891466D01*
X121713408Y-101891466D02*
X121951503Y-101891466D01*
X121951503Y-101891466D02*
X122046741Y-101843847D01*
X122380075Y-101605752D02*
X122761027Y-101605752D01*
X122522932Y-101272419D02*
X122522932Y-102129561D01*
X122522932Y-102129561D02*
X122570551Y-102224800D01*
X122570551Y-102224800D02*
X122665789Y-102272419D01*
X122665789Y-102272419D02*
X122761027Y-102272419D01*
X123475313Y-102224800D02*
X123380075Y-102272419D01*
X123380075Y-102272419D02*
X123189599Y-102272419D01*
X123189599Y-102272419D02*
X123094361Y-102224800D01*
X123094361Y-102224800D02*
X123046742Y-102129561D01*
X123046742Y-102129561D02*
X123046742Y-101748609D01*
X123046742Y-101748609D02*
X123094361Y-101653371D01*
X123094361Y-101653371D02*
X123189599Y-101605752D01*
X123189599Y-101605752D02*
X123380075Y-101605752D01*
X123380075Y-101605752D02*
X123475313Y-101653371D01*
X123475313Y-101653371D02*
X123522932Y-101748609D01*
X123522932Y-101748609D02*
X123522932Y-101843847D01*
X123522932Y-101843847D02*
X123046742Y-101939085D01*
X124713409Y-102177180D02*
X124761028Y-102224800D01*
X124761028Y-102224800D02*
X124713409Y-102272419D01*
X124713409Y-102272419D02*
X124665790Y-102224800D01*
X124665790Y-102224800D02*
X124713409Y-102177180D01*
X124713409Y-102177180D02*
X124713409Y-102272419D01*
X124713409Y-101653371D02*
X124761028Y-101700990D01*
X124761028Y-101700990D02*
X124713409Y-101748609D01*
X124713409Y-101748609D02*
X124665790Y-101700990D01*
X124665790Y-101700990D02*
X124713409Y-101653371D01*
X124713409Y-101653371D02*
X124713409Y-101748609D01*
X125094361Y-101272419D02*
X125713408Y-101272419D01*
X125713408Y-101272419D02*
X125380075Y-101653371D01*
X125380075Y-101653371D02*
X125522932Y-101653371D01*
X125522932Y-101653371D02*
X125618170Y-101700990D01*
X125618170Y-101700990D02*
X125665789Y-101748609D01*
X125665789Y-101748609D02*
X125713408Y-101843847D01*
X125713408Y-101843847D02*
X125713408Y-102081942D01*
X125713408Y-102081942D02*
X125665789Y-102177180D01*
X125665789Y-102177180D02*
X125618170Y-102224800D01*
X125618170Y-102224800D02*
X125522932Y-102272419D01*
X125522932Y-102272419D02*
X125237218Y-102272419D01*
X125237218Y-102272419D02*
X125141980Y-102224800D01*
X125141980Y-102224800D02*
X125094361Y-102177180D01*
D12*
X112354761Y-89200057D02*
X112259523Y-89152438D01*
X112259523Y-89152438D02*
X112164285Y-89057200D01*
X112164285Y-89057200D02*
X112021428Y-88914342D01*
X112021428Y-88914342D02*
X111926190Y-88866723D01*
X111926190Y-88866723D02*
X111830952Y-88866723D01*
X111878571Y-89104819D02*
X111783333Y-89057200D01*
X111783333Y-89057200D02*
X111688095Y-88961961D01*
X111688095Y-88961961D02*
X111640476Y-88771485D01*
X111640476Y-88771485D02*
X111640476Y-88438152D01*
X111640476Y-88438152D02*
X111688095Y-88247676D01*
X111688095Y-88247676D02*
X111783333Y-88152438D01*
X111783333Y-88152438D02*
X111878571Y-88104819D01*
X111878571Y-88104819D02*
X112069047Y-88104819D01*
X112069047Y-88104819D02*
X112164285Y-88152438D01*
X112164285Y-88152438D02*
X112259523Y-88247676D01*
X112259523Y-88247676D02*
X112307142Y-88438152D01*
X112307142Y-88438152D02*
X112307142Y-88771485D01*
X112307142Y-88771485D02*
X112259523Y-88961961D01*
X112259523Y-88961961D02*
X112164285Y-89057200D01*
X112164285Y-89057200D02*
X112069047Y-89104819D01*
X112069047Y-89104819D02*
X111878571Y-89104819D01*
X113259523Y-89104819D02*
X112688095Y-89104819D01*
X112973809Y-89104819D02*
X112973809Y-88104819D01*
X112973809Y-88104819D02*
X112878571Y-88247676D01*
X112878571Y-88247676D02*
X112783333Y-88342914D01*
X112783333Y-88342914D02*
X112688095Y-88390533D01*
X120923333Y-97084819D02*
X120590000Y-96608628D01*
X120351905Y-97084819D02*
X120351905Y-96084819D01*
X120351905Y-96084819D02*
X120732857Y-96084819D01*
X120732857Y-96084819D02*
X120828095Y-96132438D01*
X120828095Y-96132438D02*
X120875714Y-96180057D01*
X120875714Y-96180057D02*
X120923333Y-96275295D01*
X120923333Y-96275295D02*
X120923333Y-96418152D01*
X120923333Y-96418152D02*
X120875714Y-96513390D01*
X120875714Y-96513390D02*
X120828095Y-96561009D01*
X120828095Y-96561009D02*
X120732857Y-96608628D01*
X120732857Y-96608628D02*
X120351905Y-96608628D01*
X121256667Y-96084819D02*
X121875714Y-96084819D01*
X121875714Y-96084819D02*
X121542381Y-96465771D01*
X121542381Y-96465771D02*
X121685238Y-96465771D01*
X121685238Y-96465771D02*
X121780476Y-96513390D01*
X121780476Y-96513390D02*
X121828095Y-96561009D01*
X121828095Y-96561009D02*
X121875714Y-96656247D01*
X121875714Y-96656247D02*
X121875714Y-96894342D01*
X121875714Y-96894342D02*
X121828095Y-96989580D01*
X121828095Y-96989580D02*
X121780476Y-97037200D01*
X121780476Y-97037200D02*
X121685238Y-97084819D01*
X121685238Y-97084819D02*
X121399524Y-97084819D01*
X121399524Y-97084819D02*
X121304286Y-97037200D01*
X121304286Y-97037200D02*
X121256667Y-96989580D01*
X112354761Y-96350057D02*
X112259523Y-96302438D01*
X112259523Y-96302438D02*
X112164285Y-96207200D01*
X112164285Y-96207200D02*
X112021428Y-96064342D01*
X112021428Y-96064342D02*
X111926190Y-96016723D01*
X111926190Y-96016723D02*
X111830952Y-96016723D01*
X111878571Y-96254819D02*
X111783333Y-96207200D01*
X111783333Y-96207200D02*
X111688095Y-96111961D01*
X111688095Y-96111961D02*
X111640476Y-95921485D01*
X111640476Y-95921485D02*
X111640476Y-95588152D01*
X111640476Y-95588152D02*
X111688095Y-95397676D01*
X111688095Y-95397676D02*
X111783333Y-95302438D01*
X111783333Y-95302438D02*
X111878571Y-95254819D01*
X111878571Y-95254819D02*
X112069047Y-95254819D01*
X112069047Y-95254819D02*
X112164285Y-95302438D01*
X112164285Y-95302438D02*
X112259523Y-95397676D01*
X112259523Y-95397676D02*
X112307142Y-95588152D01*
X112307142Y-95588152D02*
X112307142Y-95921485D01*
X112307142Y-95921485D02*
X112259523Y-96111961D01*
X112259523Y-96111961D02*
X112164285Y-96207200D01*
X112164285Y-96207200D02*
X112069047Y-96254819D01*
X112069047Y-96254819D02*
X111878571Y-96254819D01*
X112688095Y-95350057D02*
X112735714Y-95302438D01*
X112735714Y-95302438D02*
X112830952Y-95254819D01*
X112830952Y-95254819D02*
X113069047Y-95254819D01*
X113069047Y-95254819D02*
X113164285Y-95302438D01*
X113164285Y-95302438D02*
X113211904Y-95350057D01*
X113211904Y-95350057D02*
X113259523Y-95445295D01*
X113259523Y-95445295D02*
X113259523Y-95540533D01*
X113259523Y-95540533D02*
X113211904Y-95683390D01*
X113211904Y-95683390D02*
X112640476Y-96254819D01*
X112640476Y-96254819D02*
X113259523Y-96254819D01*
X109794819Y-86533333D02*
X110509104Y-86533333D01*
X110509104Y-86533333D02*
X110651961Y-86580952D01*
X110651961Y-86580952D02*
X110747200Y-86676190D01*
X110747200Y-86676190D02*
X110794819Y-86819047D01*
X110794819Y-86819047D02*
X110794819Y-86914285D01*
X110794819Y-85533333D02*
X110794819Y-86104761D01*
X110794819Y-85819047D02*
X109794819Y-85819047D01*
X109794819Y-85819047D02*
X109937676Y-85914285D01*
X109937676Y-85914285D02*
X110032914Y-86009523D01*
X110032914Y-86009523D02*
X110080533Y-86104761D01*
X120923333Y-88984819D02*
X120590000Y-88508628D01*
X120351905Y-88984819D02*
X120351905Y-87984819D01*
X120351905Y-87984819D02*
X120732857Y-87984819D01*
X120732857Y-87984819D02*
X120828095Y-88032438D01*
X120828095Y-88032438D02*
X120875714Y-88080057D01*
X120875714Y-88080057D02*
X120923333Y-88175295D01*
X120923333Y-88175295D02*
X120923333Y-88318152D01*
X120923333Y-88318152D02*
X120875714Y-88413390D01*
X120875714Y-88413390D02*
X120828095Y-88461009D01*
X120828095Y-88461009D02*
X120732857Y-88508628D01*
X120732857Y-88508628D02*
X120351905Y-88508628D01*
X121875714Y-88984819D02*
X121304286Y-88984819D01*
X121590000Y-88984819D02*
X121590000Y-87984819D01*
X121590000Y-87984819D02*
X121494762Y-88127676D01*
X121494762Y-88127676D02*
X121399524Y-88222914D01*
X121399524Y-88222914D02*
X121304286Y-88270533D01*
X120923333Y-93034819D02*
X120590000Y-92558628D01*
X120351905Y-93034819D02*
X120351905Y-92034819D01*
X120351905Y-92034819D02*
X120732857Y-92034819D01*
X120732857Y-92034819D02*
X120828095Y-92082438D01*
X120828095Y-92082438D02*
X120875714Y-92130057D01*
X120875714Y-92130057D02*
X120923333Y-92225295D01*
X120923333Y-92225295D02*
X120923333Y-92368152D01*
X120923333Y-92368152D02*
X120875714Y-92463390D01*
X120875714Y-92463390D02*
X120828095Y-92511009D01*
X120828095Y-92511009D02*
X120732857Y-92558628D01*
X120732857Y-92558628D02*
X120351905Y-92558628D01*
X121304286Y-92130057D02*
X121351905Y-92082438D01*
X121351905Y-92082438D02*
X121447143Y-92034819D01*
X121447143Y-92034819D02*
X121685238Y-92034819D01*
X121685238Y-92034819D02*
X121780476Y-92082438D01*
X121780476Y-92082438D02*
X121828095Y-92130057D01*
X121828095Y-92130057D02*
X121875714Y-92225295D01*
X121875714Y-92225295D02*
X121875714Y-92320533D01*
X121875714Y-92320533D02*
X121828095Y-92463390D01*
X121828095Y-92463390D02*
X121256667Y-93034819D01*
X121256667Y-93034819D02*
X121875714Y-93034819D01*
D13*
%TO.C,Q1*%
X110650000Y-94300000D02*
X114250000Y-94300000D01*
X110638547Y-94292156D02*
G75*
G02*
X111630000Y-90000000I1811453J1842156D01*
G01*
X113230000Y-90000000D02*
G75*
G02*
X114258445Y-94277684I-780000J-2450000D01*
G01*
%TO.C,R3*%
X117820000Y-97630000D02*
X124360000Y-97630000D01*
X117820000Y-97960000D02*
X117820000Y-97630000D01*
X117820000Y-100040000D02*
X117820000Y-100370000D01*
X117820000Y-100370000D02*
X124360000Y-100370000D01*
X124360000Y-97630000D02*
X124360000Y-97960000D01*
X124360000Y-100370000D02*
X124360000Y-100040000D01*
%TO.C,Q2*%
X110650000Y-101450000D02*
X114250000Y-101450000D01*
X110638547Y-101442156D02*
G75*
G02*
X111630000Y-97150000I1811453J1842156D01*
G01*
X113230000Y-97150000D02*
G75*
G02*
X114258445Y-101427684I-780000J-2450000D01*
G01*
%TO.C,J1*%
X111340000Y-87580000D02*
X111340000Y-86200000D01*
X112720000Y-87580000D02*
X111340000Y-87580000D01*
X113990000Y-84820000D02*
X124260000Y-84820000D01*
X113990000Y-87580000D02*
X113990000Y-84820000D01*
X113990000Y-87580000D02*
X124260000Y-87580000D01*
X124260000Y-87580000D02*
X124260000Y-84820000D01*
%TO.C,R1*%
X117820000Y-89530000D02*
X124360000Y-89530000D01*
X117820000Y-89860000D02*
X117820000Y-89530000D01*
X117820000Y-91940000D02*
X117820000Y-92270000D01*
X117820000Y-92270000D02*
X124360000Y-92270000D01*
X124360000Y-89530000D02*
X124360000Y-89860000D01*
X124360000Y-92270000D02*
X124360000Y-91940000D01*
%TO.C,R2*%
X117820000Y-93580000D02*
X124360000Y-93580000D01*
X117820000Y-93910000D02*
X117820000Y-93580000D01*
X117820000Y-95990000D02*
X117820000Y-96320000D01*
X117820000Y-96320000D02*
X124360000Y-96320000D01*
X124360000Y-93580000D02*
X124360000Y-93910000D01*
X124360000Y-96320000D02*
X124360000Y-95990000D01*
%TD*%
M02*
