%TF.GenerationSoftware,KiCad,Pcbnew,9.0.2*%
%TF.CreationDate,2025-07-02T14:59:06-07:00*%
%TF.ProjectId,Blinky,426c696e-6b79-42e6-9b69-6361645f7063,rev?*%
%TF.SameCoordinates,Original*%
%TF.FileFunction,Legend,Bot*%
%TF.FilePolarity,Positive*%
%FSLAX46Y46*%
G04 Gerber Fmt 4.6, Leading zero omitted, Abs format (unit mm)*
G04 Created by KiCad (PCBNEW 9.0.2) date 2025-07-02 14:59:06*
%MOMM*%
%LPD*%
G01*
G04 APERTURE LIST*
%ADD10C,0.000000*%
G04 APERTURE END LIST*
D10*
G36*
X131521621Y-86712094D02*
G01*
X131523425Y-86712302D01*
X131525208Y-86712646D01*
X131526964Y-86713123D01*
X131528684Y-86713728D01*
X131530362Y-86714459D01*
X131531990Y-86715310D01*
X131533563Y-86716279D01*
X131535073Y-86717362D01*
X131536513Y-86718554D01*
X131537875Y-86719852D01*
X131539153Y-86721252D01*
X131540340Y-86722751D01*
X131541429Y-86724345D01*
X131542412Y-86726029D01*
X131543283Y-86727800D01*
X131544035Y-86729655D01*
X131544660Y-86731589D01*
X131545153Y-86733599D01*
X131545504Y-86735680D01*
X131545708Y-86737830D01*
X131545758Y-86740044D01*
X131542285Y-87156576D01*
X131542270Y-87521276D01*
X131546068Y-87980485D01*
X131546153Y-87982298D01*
X131546353Y-87984067D01*
X131546665Y-87985787D01*
X131547083Y-87987457D01*
X131547604Y-87989074D01*
X131548223Y-87990636D01*
X131548936Y-87992140D01*
X131549738Y-87993582D01*
X131550626Y-87994962D01*
X131551594Y-87996276D01*
X131552639Y-87997522D01*
X131553755Y-87998697D01*
X131554940Y-87999798D01*
X131556188Y-88000823D01*
X131557494Y-88001770D01*
X131558856Y-88002636D01*
X131560267Y-88003418D01*
X131561725Y-88004114D01*
X131563224Y-88004721D01*
X131564761Y-88005237D01*
X131566330Y-88005659D01*
X131567928Y-88005985D01*
X131569550Y-88006212D01*
X131571192Y-88006337D01*
X131572849Y-88006358D01*
X131574517Y-88006272D01*
X131576192Y-88006078D01*
X131577869Y-88005771D01*
X131579545Y-88005350D01*
X131581214Y-88004813D01*
X131582872Y-88004156D01*
X131584516Y-88003377D01*
X132690908Y-87434988D01*
X132692774Y-87434165D01*
X132694691Y-87433576D01*
X132696648Y-87433209D01*
X132698637Y-87433055D01*
X132700648Y-87433105D01*
X132702672Y-87433348D01*
X132704699Y-87433775D01*
X132706720Y-87434375D01*
X132708725Y-87435138D01*
X132710704Y-87436056D01*
X132712649Y-87437117D01*
X132714550Y-87438312D01*
X132716398Y-87439631D01*
X132718182Y-87441065D01*
X132719893Y-87442602D01*
X132721523Y-87444234D01*
X132723062Y-87445950D01*
X132724499Y-87447741D01*
X132725826Y-87449596D01*
X132727033Y-87451506D01*
X132728112Y-87453461D01*
X132729051Y-87455451D01*
X132729842Y-87457466D01*
X132730476Y-87459496D01*
X132730942Y-87461530D01*
X132731232Y-87463561D01*
X132731336Y-87465576D01*
X132731245Y-87467567D01*
X132730948Y-87469524D01*
X132730437Y-87471436D01*
X132729703Y-87473294D01*
X132728735Y-87475088D01*
X132540839Y-87803067D01*
X132414658Y-88048265D01*
X132276068Y-88342510D01*
X132131878Y-88681981D01*
X131988900Y-89062858D01*
X131853941Y-89481323D01*
X131733813Y-89933554D01*
X131681438Y-90171138D01*
X131635325Y-90415732D01*
X131596324Y-90666857D01*
X131565287Y-90924037D01*
X131543065Y-91186793D01*
X131530509Y-91454649D01*
X131528471Y-91727127D01*
X131537801Y-92003749D01*
X131559351Y-92284038D01*
X131593972Y-92567516D01*
X131642516Y-92853706D01*
X131705833Y-93142131D01*
X131784775Y-93432313D01*
X131880193Y-93723774D01*
X131992938Y-94016037D01*
X132123862Y-94308625D01*
X132248367Y-94575393D01*
X132362226Y-94833671D01*
X132465843Y-95083532D01*
X132559619Y-95325054D01*
X132643955Y-95558309D01*
X132719255Y-95783373D01*
X132785919Y-96000322D01*
X132844349Y-96209229D01*
X132894947Y-96410170D01*
X132938116Y-96603220D01*
X132974256Y-96788454D01*
X133003770Y-96965946D01*
X133044526Y-97298006D01*
X133063598Y-97600000D01*
X133065904Y-97778540D01*
X133061431Y-97945061D01*
X133051032Y-98099722D01*
X133035561Y-98242682D01*
X133015872Y-98374100D01*
X132992819Y-98494136D01*
X132967255Y-98602948D01*
X132940034Y-98700696D01*
X132912009Y-98787539D01*
X132884036Y-98863636D01*
X132831655Y-98984231D01*
X132789721Y-99063752D01*
X132765063Y-99103474D01*
X132764562Y-99104183D01*
X132764044Y-99104861D01*
X132763507Y-99105508D01*
X132762951Y-99106127D01*
X132762378Y-99106717D01*
X132761785Y-99107280D01*
X132761173Y-99107818D01*
X132760543Y-99108331D01*
X132759893Y-99108821D01*
X132759223Y-99109289D01*
X132758533Y-99109735D01*
X132757824Y-99110162D01*
X132757094Y-99110569D01*
X132756343Y-99110959D01*
X132755572Y-99111333D01*
X132754780Y-99111691D01*
X131216631Y-99783536D01*
X130857171Y-99885898D01*
X130002958Y-100129148D01*
X130001203Y-100129586D01*
X129999456Y-100129901D01*
X129997722Y-100130096D01*
X129996004Y-100130175D01*
X129994307Y-100130141D01*
X129992633Y-100129997D01*
X129990986Y-100129747D01*
X129989370Y-100129395D01*
X129987789Y-100128943D01*
X129986247Y-100128395D01*
X129984746Y-100127754D01*
X129983292Y-100127024D01*
X129981887Y-100126209D01*
X129980535Y-100125311D01*
X129979240Y-100124335D01*
X129978006Y-100123283D01*
X129976836Y-100122159D01*
X129975734Y-100120966D01*
X129974704Y-100119708D01*
X129973750Y-100118388D01*
X129972874Y-100117010D01*
X129972081Y-100115576D01*
X129971375Y-100114092D01*
X129970759Y-100112559D01*
X129970237Y-100110981D01*
X129969813Y-100109362D01*
X129969490Y-100107704D01*
X129969272Y-100106013D01*
X129969162Y-100104290D01*
X129969166Y-100102539D01*
X129969285Y-100100765D01*
X129969524Y-100098969D01*
X129993997Y-99933590D01*
X130011851Y-99771289D01*
X130023107Y-99610677D01*
X130027790Y-99450368D01*
X130025921Y-99288973D01*
X130017523Y-99125104D01*
X130002620Y-98957374D01*
X129981235Y-98784396D01*
X129953389Y-98604782D01*
X129919107Y-98417143D01*
X129878411Y-98220093D01*
X129831324Y-98012243D01*
X129733695Y-97621188D01*
X130380543Y-97621188D01*
X130381892Y-97639528D01*
X130385531Y-97656961D01*
X130391498Y-97673330D01*
X130399835Y-97688479D01*
X130410582Y-97702252D01*
X130423779Y-97714491D01*
X130439468Y-97725040D01*
X130457689Y-97733744D01*
X130478481Y-97740445D01*
X130501886Y-97744986D01*
X130527945Y-97747212D01*
X130556697Y-97746966D01*
X130588183Y-97744092D01*
X130622445Y-97738432D01*
X130659521Y-97729831D01*
X130699453Y-97718132D01*
X130829948Y-97690960D01*
X130951151Y-97667424D01*
X131075244Y-97644597D01*
X131248360Y-98096197D01*
X131140579Y-98150721D01*
X131032418Y-98206197D01*
X130911688Y-98269210D01*
X130884813Y-98283715D01*
X130859095Y-98300109D01*
X130834652Y-98318182D01*
X130811602Y-98337721D01*
X130790062Y-98358515D01*
X130770150Y-98380352D01*
X130751982Y-98403021D01*
X130735677Y-98426309D01*
X130721352Y-98450006D01*
X130709123Y-98473899D01*
X130699109Y-98497778D01*
X130691427Y-98521430D01*
X130686194Y-98544643D01*
X130683528Y-98567207D01*
X130683545Y-98588909D01*
X130686364Y-98609538D01*
X130692102Y-98628883D01*
X130700876Y-98646731D01*
X130712804Y-98662871D01*
X130728003Y-98677091D01*
X130746590Y-98689180D01*
X130768683Y-98698927D01*
X130794399Y-98706118D01*
X130823856Y-98710544D01*
X130857171Y-98711992D01*
X130894461Y-98710250D01*
X130935844Y-98705107D01*
X130981437Y-98696352D01*
X131031358Y-98683772D01*
X131085724Y-98667157D01*
X131144652Y-98646293D01*
X131208259Y-98620971D01*
X131368991Y-98571178D01*
X131519864Y-98527863D01*
X131660376Y-98490532D01*
X131790024Y-98458694D01*
X131908304Y-98431858D01*
X132014713Y-98409531D01*
X132189905Y-98376438D01*
X132200749Y-98374316D01*
X132211345Y-98371834D01*
X132221686Y-98369001D01*
X132231763Y-98365830D01*
X132241571Y-98362330D01*
X132251101Y-98358512D01*
X132260347Y-98354386D01*
X132269301Y-98349964D01*
X132277956Y-98345254D01*
X132286305Y-98340268D01*
X132294340Y-98335017D01*
X132302055Y-98329511D01*
X132309442Y-98323760D01*
X132316494Y-98317774D01*
X132323204Y-98311566D01*
X132329564Y-98305144D01*
X132335567Y-98298519D01*
X132341207Y-98291703D01*
X132346475Y-98284704D01*
X132351365Y-98277535D01*
X132355869Y-98270205D01*
X132359981Y-98262725D01*
X132363693Y-98255105D01*
X132366997Y-98247357D01*
X132369887Y-98239489D01*
X132372355Y-98231514D01*
X132374394Y-98223441D01*
X132375997Y-98215281D01*
X132377157Y-98207044D01*
X132377866Y-98198742D01*
X132378117Y-98190383D01*
X132377904Y-98181980D01*
X132376934Y-98171127D01*
X132375168Y-98160239D01*
X132372591Y-98149339D01*
X132369187Y-98138449D01*
X132364941Y-98127592D01*
X132359838Y-98116791D01*
X132353861Y-98106066D01*
X132346997Y-98095441D01*
X132339229Y-98084939D01*
X132330543Y-98074581D01*
X132320922Y-98064389D01*
X132310352Y-98054387D01*
X132298818Y-98044597D01*
X132286303Y-98035040D01*
X132272793Y-98025739D01*
X132258272Y-98016718D01*
X132242725Y-98007997D01*
X132226137Y-97999599D01*
X132208492Y-97991548D01*
X132189775Y-97983864D01*
X132169970Y-97976571D01*
X132149063Y-97969690D01*
X132127038Y-97963245D01*
X132103880Y-97957257D01*
X132079572Y-97951749D01*
X132054101Y-97946743D01*
X132027451Y-97942262D01*
X131999605Y-97938328D01*
X131970550Y-97934963D01*
X131940269Y-97932189D01*
X131908748Y-97930030D01*
X131875970Y-97928507D01*
X131858741Y-97929370D01*
X131841461Y-97931105D01*
X131824227Y-97933558D01*
X131807136Y-97936578D01*
X131773773Y-97943709D01*
X131742147Y-97951281D01*
X131713035Y-97958077D01*
X131699664Y-97960803D01*
X131687212Y-97962879D01*
X131675778Y-97964152D01*
X131665456Y-97964470D01*
X131656346Y-97963680D01*
X131652275Y-97962823D01*
X131648543Y-97961632D01*
X131646790Y-97960159D01*
X131644365Y-97956664D01*
X131637692Y-97944150D01*
X131618385Y-97900824D01*
X131593674Y-97840338D01*
X131566612Y-97771375D01*
X131495890Y-97584446D01*
X131546314Y-97562451D01*
X131667814Y-97507939D01*
X131741263Y-97473867D01*
X131815736Y-97438118D01*
X131885650Y-97402844D01*
X131917153Y-97386057D01*
X131945424Y-97370195D01*
X131979573Y-97355353D01*
X132010317Y-97339541D01*
X132037764Y-97322873D01*
X132062018Y-97305464D01*
X132083185Y-97287426D01*
X132101372Y-97268874D01*
X132116684Y-97249921D01*
X132129228Y-97230681D01*
X132139109Y-97211268D01*
X132146433Y-97191795D01*
X132151306Y-97172376D01*
X132153834Y-97153125D01*
X132154122Y-97134156D01*
X132152278Y-97115581D01*
X132148406Y-97097516D01*
X132142613Y-97080074D01*
X132135004Y-97063368D01*
X132125686Y-97047512D01*
X132114764Y-97032620D01*
X132102344Y-97018806D01*
X132088533Y-97006183D01*
X132073436Y-96994865D01*
X132057158Y-96984967D01*
X132039807Y-96976600D01*
X132021488Y-96969880D01*
X132002306Y-96964920D01*
X131982368Y-96961834D01*
X131961779Y-96960735D01*
X131940647Y-96961737D01*
X131919075Y-96964954D01*
X131897171Y-96970500D01*
X131875040Y-96978488D01*
X131722441Y-97010378D01*
X131549021Y-97054178D01*
X131364885Y-97105691D01*
X131180137Y-97160720D01*
X130637131Y-97332058D01*
X130607374Y-97343631D01*
X130579257Y-97356801D01*
X130552821Y-97371411D01*
X130528107Y-97387305D01*
X130505154Y-97404326D01*
X130484004Y-97422317D01*
X130464696Y-97441123D01*
X130447272Y-97460586D01*
X130431772Y-97480550D01*
X130418236Y-97500859D01*
X130406705Y-97521357D01*
X130397219Y-97541885D01*
X130389820Y-97562290D01*
X130385535Y-97578644D01*
X130384547Y-97582412D01*
X130381441Y-97602097D01*
X130380543Y-97621188D01*
X129733695Y-97621188D01*
X129718068Y-97558596D01*
X129634780Y-97249903D01*
X129579521Y-97045098D01*
X129421171Y-96497590D01*
X129358814Y-96290277D01*
X130000839Y-96290277D01*
X130001230Y-96305482D01*
X130003183Y-96320010D01*
X130006683Y-96333771D01*
X130011718Y-96346673D01*
X130018272Y-96358625D01*
X130026333Y-96369535D01*
X130035886Y-96379311D01*
X130046918Y-96387863D01*
X130059414Y-96395099D01*
X130073361Y-96400927D01*
X130088745Y-96405257D01*
X130105552Y-96407996D01*
X130123768Y-96409053D01*
X130143379Y-96408337D01*
X130164372Y-96405757D01*
X130186733Y-96401221D01*
X130210448Y-96394637D01*
X130235502Y-96385914D01*
X130355527Y-96349422D01*
X130457086Y-96316864D01*
X130553674Y-96284525D01*
X130593568Y-96641609D01*
X130544708Y-96667820D01*
X130500238Y-96693798D01*
X130460019Y-96719474D01*
X130423910Y-96744781D01*
X130391772Y-96769652D01*
X130363463Y-96794019D01*
X130338844Y-96817815D01*
X130317774Y-96840970D01*
X130300113Y-96863419D01*
X130285721Y-96885094D01*
X130274457Y-96905926D01*
X130266182Y-96925848D01*
X130260754Y-96944793D01*
X130258034Y-96962692D01*
X130257882Y-96979479D01*
X130260156Y-96995086D01*
X130264718Y-97009445D01*
X130271426Y-97022488D01*
X130280140Y-97034147D01*
X130290721Y-97044356D01*
X130303027Y-97053047D01*
X130316919Y-97060151D01*
X130332255Y-97065601D01*
X130348897Y-97069330D01*
X130366704Y-97071271D01*
X130385535Y-97071354D01*
X130405250Y-97069513D01*
X130425709Y-97065681D01*
X130446771Y-97059789D01*
X130468297Y-97051769D01*
X130490146Y-97041555D01*
X130512178Y-97029079D01*
X130770785Y-96884969D01*
X131093594Y-96707900D01*
X131421775Y-96530835D01*
X131696498Y-96386741D01*
X131734786Y-96366372D01*
X131752513Y-96356075D01*
X131769323Y-96345713D01*
X131785237Y-96335294D01*
X131800278Y-96324825D01*
X131814467Y-96314315D01*
X131827824Y-96303770D01*
X131840372Y-96293199D01*
X131852131Y-96282610D01*
X131863124Y-96272009D01*
X131873370Y-96261405D01*
X131882893Y-96250805D01*
X131891712Y-96240217D01*
X131907328Y-96219109D01*
X131920389Y-96198141D01*
X131931065Y-96177374D01*
X131939528Y-96156871D01*
X131945948Y-96136692D01*
X131950497Y-96116900D01*
X131953345Y-96097556D01*
X131954663Y-96078720D01*
X131954622Y-96060456D01*
X131954396Y-96055694D01*
X131954081Y-96050982D01*
X131953687Y-96046318D01*
X131953227Y-96041697D01*
X131952659Y-96037685D01*
X131951623Y-96033588D01*
X131950135Y-96029413D01*
X131948210Y-96025165D01*
X131945865Y-96020848D01*
X131943114Y-96016468D01*
X131939974Y-96012031D01*
X131936460Y-96007542D01*
X131932588Y-96003005D01*
X131928374Y-95998427D01*
X131918983Y-95989166D01*
X131908411Y-95979800D01*
X131896785Y-95970373D01*
X131884231Y-95960926D01*
X131870875Y-95951501D01*
X131856842Y-95942140D01*
X131842259Y-95932886D01*
X131827251Y-95923781D01*
X131811944Y-95914867D01*
X131796464Y-95906185D01*
X131780938Y-95897779D01*
X131673786Y-95875317D01*
X131557959Y-95861388D01*
X131435495Y-95855089D01*
X131308433Y-95855520D01*
X131178811Y-95861779D01*
X131048668Y-95872965D01*
X130920042Y-95888178D01*
X130794973Y-95906517D01*
X130563658Y-95948965D01*
X130371032Y-95993103D01*
X130366391Y-95994406D01*
X130233404Y-96031722D01*
X130190311Y-96046709D01*
X130167083Y-96057614D01*
X130144158Y-96072685D01*
X130122988Y-96088360D01*
X130103560Y-96104547D01*
X130085860Y-96121156D01*
X130069873Y-96138094D01*
X130055587Y-96155269D01*
X130042987Y-96172592D01*
X130032060Y-96189970D01*
X130022791Y-96207311D01*
X130015166Y-96224525D01*
X130009173Y-96241520D01*
X130004796Y-96258205D01*
X130002023Y-96274488D01*
X130000839Y-96290277D01*
X129358814Y-96290277D01*
X129258342Y-95956242D01*
X129098922Y-95405948D01*
X129022955Y-95122725D01*
X129021036Y-95114984D01*
X129683081Y-95114984D01*
X129685941Y-95145555D01*
X129691496Y-95192907D01*
X129696304Y-95221429D01*
X129703011Y-95252412D01*
X129712022Y-95285275D01*
X129723748Y-95319442D01*
X129730756Y-95336833D01*
X129738595Y-95354332D01*
X129747317Y-95371868D01*
X129756972Y-95389369D01*
X129767612Y-95406761D01*
X129779287Y-95423973D01*
X129792048Y-95440931D01*
X129805947Y-95457565D01*
X129821034Y-95473801D01*
X129837360Y-95489568D01*
X129854977Y-95504793D01*
X129873935Y-95519403D01*
X129894285Y-95533326D01*
X129916079Y-95546491D01*
X129939367Y-95558824D01*
X129964201Y-95570254D01*
X130018770Y-95591969D01*
X130075641Y-95609188D01*
X130134009Y-95622338D01*
X130193071Y-95631846D01*
X130252024Y-95638140D01*
X130310066Y-95641646D01*
X130366391Y-95642791D01*
X130420198Y-95642003D01*
X130517043Y-95636333D01*
X130594174Y-95628054D01*
X130663590Y-95617331D01*
X130700498Y-95609088D01*
X130797831Y-95583178D01*
X130862881Y-95563046D01*
X130935504Y-95537833D01*
X131013190Y-95507319D01*
X131093428Y-95471282D01*
X131173707Y-95429502D01*
X131213078Y-95406389D01*
X131251517Y-95381756D01*
X131288712Y-95355578D01*
X131324347Y-95327825D01*
X131358110Y-95298470D01*
X131389686Y-95267486D01*
X131418762Y-95234844D01*
X131445023Y-95200518D01*
X131468156Y-95164479D01*
X131487847Y-95126700D01*
X131503783Y-95087153D01*
X131515648Y-95045811D01*
X131523130Y-95002646D01*
X131525915Y-94957630D01*
X131527013Y-94949744D01*
X131527987Y-94941948D01*
X131528839Y-94934241D01*
X131529570Y-94926623D01*
X131530179Y-94919092D01*
X131530668Y-94911647D01*
X131531038Y-94904288D01*
X131531289Y-94897013D01*
X131531214Y-94870494D01*
X131529597Y-94845173D01*
X131526515Y-94821034D01*
X131522046Y-94798063D01*
X131516267Y-94776246D01*
X131509255Y-94755566D01*
X131501088Y-94736010D01*
X131491842Y-94717563D01*
X131481595Y-94700209D01*
X131470424Y-94683935D01*
X131458407Y-94668725D01*
X131445620Y-94654565D01*
X131432141Y-94641439D01*
X131418047Y-94629333D01*
X131403416Y-94618232D01*
X131388324Y-94608122D01*
X131372849Y-94598987D01*
X131357068Y-94590813D01*
X131341059Y-94583585D01*
X131324898Y-94577288D01*
X131308663Y-94571907D01*
X131292431Y-94567428D01*
X131276280Y-94563836D01*
X131260286Y-94561116D01*
X131244527Y-94559253D01*
X131229081Y-94558232D01*
X131214023Y-94558039D01*
X131199433Y-94558659D01*
X131185386Y-94560077D01*
X131171960Y-94562278D01*
X131159233Y-94565248D01*
X131147281Y-94568971D01*
X131140474Y-94571526D01*
X131133659Y-94574505D01*
X131126885Y-94577903D01*
X131120203Y-94581712D01*
X131113661Y-94585928D01*
X131107311Y-94590545D01*
X131101200Y-94595557D01*
X131095380Y-94600958D01*
X131089899Y-94606743D01*
X131084807Y-94612905D01*
X131080154Y-94619440D01*
X131075989Y-94626340D01*
X131072363Y-94633601D01*
X131069324Y-94641217D01*
X131066923Y-94649181D01*
X131065208Y-94657488D01*
X131064231Y-94666133D01*
X131064039Y-94675110D01*
X131064684Y-94684412D01*
X131066214Y-94694034D01*
X131068680Y-94703971D01*
X131072130Y-94714216D01*
X131076615Y-94724763D01*
X131082184Y-94735608D01*
X131088887Y-94746744D01*
X131096773Y-94758166D01*
X131105893Y-94769867D01*
X131116295Y-94781842D01*
X131128030Y-94794085D01*
X131141146Y-94806590D01*
X131155694Y-94819353D01*
X131171724Y-94832366D01*
X131180973Y-94854001D01*
X131186888Y-94875127D01*
X131189621Y-94895747D01*
X131189325Y-94915860D01*
X131186151Y-94935468D01*
X131180254Y-94954573D01*
X131171784Y-94973175D01*
X131160894Y-94991277D01*
X131147737Y-95008879D01*
X131132466Y-95025982D01*
X131115232Y-95042589D01*
X131096187Y-95058700D01*
X131075485Y-95074317D01*
X131053278Y-95089441D01*
X131029718Y-95104073D01*
X131004958Y-95118215D01*
X130952445Y-95145032D01*
X130896960Y-95169903D01*
X130839721Y-95192839D01*
X130781948Y-95213849D01*
X130724861Y-95232945D01*
X130669677Y-95250137D01*
X130569900Y-95278850D01*
X130511009Y-95288919D01*
X130478279Y-95293233D01*
X130443915Y-95296776D01*
X130408333Y-95299332D01*
X130371951Y-95300684D01*
X130335185Y-95300615D01*
X130298450Y-95298906D01*
X130262165Y-95295342D01*
X130226745Y-95289706D01*
X130192606Y-95281779D01*
X130160166Y-95271345D01*
X130144713Y-95265121D01*
X130129841Y-95258188D01*
X130115601Y-95250519D01*
X130102047Y-95242088D01*
X130089230Y-95232868D01*
X130077201Y-95222831D01*
X130066014Y-95211950D01*
X130055720Y-95200198D01*
X130050068Y-95192953D01*
X130044833Y-95185608D01*
X130040000Y-95178173D01*
X130035552Y-95170654D01*
X130031472Y-95163060D01*
X130027744Y-95155398D01*
X130021281Y-95139905D01*
X130016031Y-95124237D01*
X130011864Y-95108457D01*
X130008650Y-95092629D01*
X130006257Y-95076817D01*
X130004556Y-95061083D01*
X130003416Y-95045491D01*
X130002296Y-95014984D01*
X130001855Y-94985804D01*
X130001046Y-94958456D01*
X129999801Y-94953153D01*
X129997400Y-94947615D01*
X129993903Y-94941932D01*
X129989369Y-94936194D01*
X129983857Y-94930489D01*
X129977428Y-94924907D01*
X129970140Y-94919537D01*
X129962054Y-94914468D01*
X129953228Y-94909789D01*
X129943723Y-94905589D01*
X129933597Y-94901958D01*
X129922911Y-94898985D01*
X129911723Y-94896759D01*
X129900094Y-94895368D01*
X129888083Y-94894903D01*
X129875749Y-94895453D01*
X129863151Y-94897106D01*
X129850350Y-94899952D01*
X129837405Y-94904080D01*
X129824376Y-94909579D01*
X129811321Y-94916539D01*
X129798300Y-94925048D01*
X129785374Y-94935196D01*
X129772601Y-94947072D01*
X129760041Y-94960765D01*
X129747753Y-94976364D01*
X129735797Y-94993958D01*
X129724233Y-95013638D01*
X129713120Y-95035491D01*
X129702517Y-95059607D01*
X129692485Y-95086075D01*
X129683081Y-95114984D01*
X129021036Y-95114984D01*
X128950798Y-94831601D01*
X128883438Y-94530687D01*
X128821860Y-94218095D01*
X128767050Y-93891937D01*
X128737796Y-93679558D01*
X129313063Y-93679558D01*
X129314610Y-93695598D01*
X129317689Y-93711583D01*
X129322229Y-93727398D01*
X129328158Y-93742929D01*
X129335406Y-93758062D01*
X129343901Y-93772683D01*
X129353573Y-93786677D01*
X129364351Y-93799930D01*
X129376163Y-93812327D01*
X129388939Y-93823755D01*
X129402607Y-93834098D01*
X129417097Y-93843243D01*
X129432338Y-93851075D01*
X129448258Y-93857480D01*
X129464787Y-93862343D01*
X129481853Y-93865551D01*
X129564204Y-93877623D01*
X129662264Y-93894915D01*
X129872606Y-93936737D01*
X130119850Y-93990401D01*
X130106776Y-94106570D01*
X130069222Y-94118717D01*
X130028821Y-94132532D01*
X129979820Y-94150291D01*
X129926580Y-94171083D01*
X129899733Y-94182331D01*
X129873462Y-94193995D01*
X129848312Y-94205961D01*
X129824828Y-94218115D01*
X129803555Y-94230343D01*
X129785038Y-94242531D01*
X129749527Y-94267481D01*
X129717033Y-94292226D01*
X129687476Y-94316703D01*
X129660775Y-94340850D01*
X129636852Y-94364607D01*
X129615626Y-94387910D01*
X129597019Y-94410699D01*
X129580949Y-94432912D01*
X129567337Y-94454487D01*
X129556104Y-94475361D01*
X129547170Y-94495475D01*
X129540455Y-94514765D01*
X129535879Y-94533169D01*
X129533363Y-94550627D01*
X129532826Y-94567077D01*
X129534189Y-94582456D01*
X129537373Y-94596703D01*
X129542297Y-94609757D01*
X129548882Y-94621555D01*
X129557048Y-94632035D01*
X129566716Y-94641137D01*
X129577804Y-94648798D01*
X129590235Y-94654957D01*
X129603927Y-94659551D01*
X129618802Y-94662519D01*
X129634780Y-94663800D01*
X129651780Y-94663331D01*
X129669723Y-94661051D01*
X129688529Y-94656898D01*
X129708119Y-94650810D01*
X129728412Y-94642726D01*
X129749330Y-94632584D01*
X129904704Y-94550087D01*
X129962785Y-94519748D01*
X130021657Y-94489876D01*
X130077867Y-94462650D01*
X130103895Y-94450709D01*
X130127963Y-94440245D01*
X130219330Y-94403503D01*
X130305758Y-94373587D01*
X130387556Y-94349736D01*
X130465030Y-94331193D01*
X130538488Y-94317200D01*
X130608237Y-94306997D01*
X130674584Y-94299827D01*
X130737837Y-94294931D01*
X130966054Y-94282918D01*
X131018445Y-94278015D01*
X131069586Y-94270836D01*
X131119784Y-94260621D01*
X131169347Y-94246613D01*
X131181569Y-94242020D01*
X131192906Y-94236993D01*
X131203373Y-94231553D01*
X131212984Y-94225725D01*
X131221755Y-94219529D01*
X131225829Y-94216300D01*
X131229698Y-94212987D01*
X131233365Y-94209594D01*
X131236830Y-94206123D01*
X131240095Y-94202577D01*
X131243164Y-94198959D01*
X131246036Y-94195271D01*
X131248714Y-94191516D01*
X131251200Y-94187697D01*
X131253496Y-94183817D01*
X131257524Y-94175885D01*
X131260813Y-94167740D01*
X131263376Y-94159407D01*
X131265228Y-94150907D01*
X131266385Y-94142261D01*
X131266860Y-94133494D01*
X131266861Y-94133494D01*
X131266614Y-94123734D01*
X131265580Y-94113883D01*
X131263779Y-94103971D01*
X131261230Y-94094026D01*
X131257953Y-94084079D01*
X131253967Y-94074159D01*
X131249292Y-94064295D01*
X131243947Y-94054518D01*
X131237951Y-94044857D01*
X131231325Y-94035342D01*
X131224087Y-94026002D01*
X131216257Y-94016867D01*
X131212529Y-94012918D01*
X131207855Y-94007967D01*
X131198899Y-93999331D01*
X131189410Y-93990989D01*
X131179407Y-93982970D01*
X131168909Y-93975305D01*
X131157936Y-93968022D01*
X131146508Y-93961152D01*
X131134643Y-93954724D01*
X131122361Y-93948768D01*
X131109683Y-93943313D01*
X131096626Y-93938389D01*
X131083211Y-93934026D01*
X131069457Y-93930253D01*
X131055384Y-93927100D01*
X131041011Y-93924596D01*
X131026357Y-93922772D01*
X131011443Y-93921657D01*
X130996287Y-93921280D01*
X130980909Y-93921671D01*
X130965329Y-93922861D01*
X130921452Y-93922430D01*
X130904924Y-93922838D01*
X130876404Y-93923540D01*
X130830734Y-93925982D01*
X130784997Y-93929547D01*
X130695528Y-93939210D01*
X130612415Y-93950861D01*
X130540080Y-93962829D01*
X130482940Y-93973445D01*
X130431924Y-93983942D01*
X130435708Y-93981961D01*
X130440627Y-93979003D01*
X130447734Y-93974306D01*
X130457155Y-93967549D01*
X130469017Y-93958411D01*
X130483447Y-93946571D01*
X130500571Y-93931708D01*
X130510184Y-93923042D01*
X130520517Y-93913501D01*
X130531588Y-93903043D01*
X130543411Y-93891629D01*
X130556003Y-93879218D01*
X130569380Y-93865771D01*
X130583557Y-93851247D01*
X130598551Y-93835606D01*
X130614376Y-93818808D01*
X130631050Y-93800813D01*
X130648587Y-93781581D01*
X130667004Y-93761072D01*
X130686317Y-93739246D01*
X130706541Y-93716061D01*
X130727692Y-93691480D01*
X130749786Y-93665460D01*
X130771358Y-93639344D01*
X130790972Y-93614488D01*
X130808684Y-93590873D01*
X130824548Y-93568477D01*
X130838619Y-93547279D01*
X130850952Y-93527257D01*
X130861601Y-93508390D01*
X130870620Y-93490656D01*
X130878065Y-93474036D01*
X130883990Y-93458507D01*
X130888450Y-93444048D01*
X130891499Y-93430639D01*
X130893192Y-93418257D01*
X130893583Y-93406881D01*
X130892728Y-93396491D01*
X130890681Y-93387065D01*
X130887496Y-93378581D01*
X130883228Y-93371019D01*
X130877933Y-93364358D01*
X130871663Y-93358576D01*
X130864475Y-93353651D01*
X130856422Y-93349563D01*
X130847560Y-93346291D01*
X130837943Y-93343812D01*
X130827625Y-93342107D01*
X130816662Y-93341153D01*
X130793016Y-93341416D01*
X130767444Y-93344431D01*
X130740381Y-93350027D01*
X130726542Y-93354235D01*
X130711509Y-93360251D01*
X130678290Y-93377194D01*
X130641580Y-93399840D01*
X130602236Y-93427169D01*
X130561115Y-93458164D01*
X130519074Y-93491806D01*
X130435660Y-93562959D01*
X130358849Y-93632481D01*
X130295496Y-93692225D01*
X130236587Y-93749796D01*
X130234296Y-93744968D01*
X130231261Y-93740140D01*
X130227536Y-93735321D01*
X130223176Y-93730523D01*
X130218233Y-93725754D01*
X130212761Y-93721025D01*
X130200444Y-93711727D01*
X130186653Y-93702710D01*
X130171815Y-93694055D01*
X130156360Y-93685841D01*
X130140714Y-93678150D01*
X130110564Y-93664657D01*
X130084789Y-93654222D01*
X130081326Y-93652944D01*
X130060061Y-93645100D01*
X129982185Y-93616337D01*
X129908545Y-93591075D01*
X129839122Y-93569239D01*
X129773895Y-93550749D01*
X129712845Y-93535530D01*
X129655952Y-93523504D01*
X129603198Y-93514595D01*
X129554562Y-93508726D01*
X129521944Y-93510097D01*
X129491995Y-93513243D01*
X129464642Y-93518049D01*
X129439816Y-93524401D01*
X129417444Y-93532184D01*
X129397456Y-93541283D01*
X129379780Y-93551586D01*
X129364347Y-93562976D01*
X129351084Y-93575341D01*
X129339921Y-93588565D01*
X129330787Y-93602534D01*
X129323611Y-93617135D01*
X129318321Y-93632252D01*
X129314848Y-93647771D01*
X129313118Y-93663578D01*
X129313063Y-93679558D01*
X128737796Y-93679558D01*
X128719995Y-93550323D01*
X128681680Y-93191367D01*
X128653091Y-92813180D01*
X128635215Y-92413872D01*
X128630674Y-92103475D01*
X129259249Y-92103475D01*
X129260849Y-92134461D01*
X129264426Y-92164530D01*
X129269958Y-92193673D01*
X129277417Y-92221883D01*
X129286781Y-92249151D01*
X129298023Y-92275468D01*
X129311119Y-92300827D01*
X129326045Y-92325219D01*
X129342775Y-92348636D01*
X129361285Y-92371070D01*
X129381549Y-92392512D01*
X129403543Y-92412953D01*
X129427242Y-92432387D01*
X129452622Y-92450803D01*
X129479656Y-92468195D01*
X129508322Y-92484554D01*
X129538593Y-92499871D01*
X129570445Y-92514139D01*
X129603853Y-92527348D01*
X129638792Y-92539491D01*
X129675237Y-92550560D01*
X129713164Y-92560546D01*
X129752547Y-92569440D01*
X129793363Y-92577235D01*
X129835585Y-92583922D01*
X129879190Y-92589493D01*
X129924152Y-92593940D01*
X129970446Y-92597254D01*
X130018048Y-92599427D01*
X130081326Y-92600045D01*
X130141879Y-92598716D01*
X130199722Y-92595497D01*
X130254871Y-92590447D01*
X130307341Y-92583626D01*
X130357146Y-92575092D01*
X130404303Y-92564905D01*
X130448827Y-92553123D01*
X130490733Y-92539806D01*
X130530037Y-92525012D01*
X130566753Y-92508799D01*
X130600897Y-92491228D01*
X130632485Y-92472357D01*
X130661532Y-92452245D01*
X130688052Y-92430951D01*
X130712062Y-92408534D01*
X130725202Y-92391815D01*
X130737433Y-92375225D01*
X130748763Y-92358766D01*
X130759199Y-92342441D01*
X130768747Y-92326251D01*
X130777413Y-92310198D01*
X130785205Y-92294283D01*
X130792128Y-92278509D01*
X130798191Y-92262877D01*
X130803398Y-92247390D01*
X130807758Y-92232048D01*
X130811276Y-92216854D01*
X130813960Y-92201810D01*
X130815815Y-92186917D01*
X130816849Y-92172178D01*
X130817069Y-92157593D01*
X130816165Y-92139073D01*
X130813940Y-92120816D01*
X130810410Y-92102827D01*
X130805587Y-92085110D01*
X130799487Y-92067668D01*
X130792123Y-92050506D01*
X130783511Y-92033628D01*
X130773665Y-92017037D01*
X130762598Y-92000737D01*
X130750325Y-91984733D01*
X130736861Y-91969028D01*
X130722219Y-91953626D01*
X130706415Y-91938531D01*
X130704310Y-91936696D01*
X130689463Y-91923748D01*
X130671376Y-91909279D01*
X130652169Y-91895129D01*
X130639566Y-91889135D01*
X130626919Y-91883759D01*
X130614284Y-91879009D01*
X130601718Y-91874895D01*
X130589276Y-91871425D01*
X130577014Y-91868607D01*
X130564986Y-91866451D01*
X130553249Y-91864965D01*
X130541859Y-91864157D01*
X130530870Y-91864037D01*
X130520339Y-91864612D01*
X130510322Y-91865892D01*
X130500873Y-91867885D01*
X130492048Y-91870599D01*
X130483904Y-91874045D01*
X130476495Y-91878229D01*
X130469877Y-91883161D01*
X130464107Y-91888849D01*
X130459239Y-91895302D01*
X130455329Y-91902529D01*
X130452433Y-91910539D01*
X130450606Y-91919339D01*
X130449905Y-91928938D01*
X130450384Y-91939346D01*
X130452099Y-91950571D01*
X130455106Y-91962621D01*
X130459461Y-91975506D01*
X130465218Y-91989233D01*
X130472435Y-92003811D01*
X130481166Y-92019250D01*
X130491467Y-92035557D01*
X130503393Y-92052742D01*
X130505647Y-92055603D01*
X130508427Y-92059714D01*
X130511574Y-92064989D01*
X130514926Y-92071342D01*
X130518322Y-92078687D01*
X130521601Y-92086938D01*
X130524601Y-92096010D01*
X130525947Y-92100826D01*
X130527162Y-92105815D01*
X130528227Y-92110966D01*
X130529122Y-92116269D01*
X130529826Y-92121712D01*
X130530320Y-92127285D01*
X130530583Y-92132978D01*
X130530596Y-92138778D01*
X130530337Y-92144676D01*
X130529787Y-92150661D01*
X130528925Y-92156723D01*
X130527733Y-92162849D01*
X130526188Y-92169031D01*
X130524272Y-92175256D01*
X130521964Y-92181514D01*
X130519244Y-92187795D01*
X130516092Y-92194088D01*
X130512488Y-92200381D01*
X130503659Y-92215579D01*
X130500894Y-92220114D01*
X130497810Y-92224905D01*
X130494361Y-92229931D01*
X130490497Y-92235174D01*
X130486171Y-92240613D01*
X130481336Y-92246229D01*
X130475944Y-92252003D01*
X130469947Y-92257914D01*
X130463297Y-92263944D01*
X130459712Y-92266997D01*
X130455946Y-92270072D01*
X130451993Y-92273167D01*
X130447847Y-92276280D01*
X130443502Y-92279407D01*
X130438952Y-92282547D01*
X130422849Y-92292652D01*
X130406020Y-92301924D01*
X130388516Y-92310382D01*
X130370388Y-92318050D01*
X130332466Y-92331099D01*
X130292659Y-92341241D01*
X130251377Y-92348650D01*
X130209026Y-92353498D01*
X130166014Y-92355957D01*
X130122748Y-92356198D01*
X130079637Y-92354395D01*
X130037087Y-92350719D01*
X129995506Y-92345343D01*
X129955303Y-92338438D01*
X129916883Y-92330177D01*
X129880656Y-92320733D01*
X129847028Y-92310276D01*
X129816407Y-92298981D01*
X129775477Y-92281116D01*
X129738304Y-92262795D01*
X129704827Y-92243990D01*
X129689456Y-92234398D01*
X129674986Y-92224676D01*
X129661410Y-92214818D01*
X129648720Y-92204823D01*
X129636909Y-92194687D01*
X129625970Y-92184405D01*
X129615894Y-92173976D01*
X129606674Y-92163395D01*
X129598303Y-92152659D01*
X129590774Y-92141765D01*
X129584077Y-92130709D01*
X129578207Y-92119488D01*
X129573155Y-92108098D01*
X129568915Y-92096537D01*
X129565477Y-92084800D01*
X129562836Y-92072884D01*
X129560983Y-92060785D01*
X129559911Y-92048501D01*
X129559612Y-92036028D01*
X129560079Y-92023363D01*
X129561304Y-92010502D01*
X129563280Y-91997441D01*
X129565999Y-91984177D01*
X129569454Y-91970708D01*
X129573637Y-91957029D01*
X129578540Y-91943136D01*
X129588075Y-91916778D01*
X129595733Y-91893522D01*
X129601678Y-91873130D01*
X129606071Y-91855365D01*
X129609075Y-91839988D01*
X129610852Y-91826761D01*
X129611565Y-91815445D01*
X129611376Y-91805802D01*
X129610448Y-91797594D01*
X129608942Y-91790583D01*
X129607022Y-91784531D01*
X129604849Y-91779198D01*
X129600397Y-91769741D01*
X129598442Y-91765139D01*
X129596885Y-91760305D01*
X129595339Y-91757022D01*
X129592388Y-91753526D01*
X129588116Y-91749907D01*
X129582608Y-91746259D01*
X129575947Y-91742672D01*
X129568216Y-91739240D01*
X129559500Y-91736053D01*
X129549883Y-91733203D01*
X129539448Y-91730784D01*
X129528279Y-91728885D01*
X129516460Y-91727601D01*
X129504075Y-91727021D01*
X129491207Y-91727239D01*
X129477941Y-91728346D01*
X129464360Y-91730434D01*
X129450549Y-91733595D01*
X129436590Y-91737921D01*
X129422568Y-91743503D01*
X129408567Y-91750435D01*
X129394670Y-91758807D01*
X129380961Y-91768711D01*
X129367525Y-91780240D01*
X129354444Y-91793486D01*
X129341804Y-91808539D01*
X129329687Y-91825493D01*
X129318177Y-91844439D01*
X129307358Y-91865469D01*
X129297315Y-91888675D01*
X129288131Y-91914149D01*
X129279889Y-91941982D01*
X129272674Y-91972268D01*
X129266569Y-92005096D01*
X129262085Y-92038784D01*
X129259653Y-92071580D01*
X129259249Y-92103475D01*
X128630674Y-92103475D01*
X128629037Y-91991557D01*
X128636242Y-91788545D01*
X128657287Y-91582626D01*
X128691323Y-91374338D01*
X128702865Y-91321815D01*
X129456736Y-91321815D01*
X129457304Y-91347120D01*
X129459213Y-91370193D01*
X129462566Y-91390784D01*
X129467462Y-91408641D01*
X129474002Y-91423513D01*
X129482285Y-91435150D01*
X129492414Y-91443301D01*
X129504487Y-91447714D01*
X129553770Y-91456501D01*
X129598904Y-91463561D01*
X129642806Y-91469473D01*
X129688391Y-91474817D01*
X129945856Y-91502078D01*
X130038663Y-91513580D01*
X130137147Y-91527456D01*
X130340934Y-91557627D01*
X130441132Y-91571567D01*
X130536796Y-91583174D01*
X130625373Y-91591272D01*
X130666206Y-91593636D01*
X130704310Y-91594682D01*
X130723601Y-91594198D01*
X130742477Y-91592442D01*
X130760818Y-91589487D01*
X130778505Y-91585406D01*
X130795420Y-91580273D01*
X130811443Y-91574162D01*
X130826454Y-91567145D01*
X130840335Y-91559296D01*
X130852967Y-91550689D01*
X130864230Y-91541396D01*
X130874005Y-91531492D01*
X130878298Y-91526333D01*
X130882174Y-91521049D01*
X130885618Y-91515649D01*
X130888615Y-91510141D01*
X130891152Y-91504536D01*
X130893212Y-91498842D01*
X130894781Y-91493068D01*
X130895844Y-91487224D01*
X130896386Y-91481319D01*
X130896392Y-91475362D01*
X130895941Y-91470069D01*
X130895050Y-91464750D01*
X130893710Y-91459409D01*
X130891910Y-91454054D01*
X130889641Y-91448691D01*
X130886891Y-91443326D01*
X130883652Y-91437966D01*
X130879912Y-91432616D01*
X130875661Y-91427283D01*
X130870889Y-91421974D01*
X130865586Y-91416694D01*
X130859741Y-91411450D01*
X130853345Y-91406249D01*
X130846388Y-91401096D01*
X130838858Y-91395998D01*
X130830745Y-91390961D01*
X130822041Y-91385992D01*
X130812733Y-91381097D01*
X130802813Y-91376281D01*
X130792269Y-91371553D01*
X130781092Y-91366916D01*
X130769271Y-91362379D01*
X130756796Y-91357948D01*
X130743658Y-91353628D01*
X130729844Y-91349426D01*
X130715347Y-91345348D01*
X130700154Y-91341401D01*
X130684257Y-91337591D01*
X130667644Y-91333924D01*
X130650306Y-91330407D01*
X130632232Y-91327046D01*
X130613412Y-91323846D01*
X130557586Y-91308670D01*
X130496696Y-91295814D01*
X130431853Y-91285021D01*
X130364168Y-91276038D01*
X130224719Y-91262479D01*
X130087241Y-91253095D01*
X129853762Y-91238695D01*
X129810516Y-91234517D01*
X129775543Y-91229597D01*
X129749954Y-91223681D01*
X129734861Y-91216514D01*
X129730473Y-91211797D01*
X129726764Y-91205585D01*
X129723705Y-91197969D01*
X129721266Y-91189041D01*
X129719416Y-91178893D01*
X129718127Y-91167614D01*
X129717108Y-91142033D01*
X129717971Y-91113030D01*
X129720476Y-91081334D01*
X129724386Y-91047677D01*
X129729460Y-91012790D01*
X129735461Y-90977402D01*
X129742149Y-90942244D01*
X129756631Y-90875544D01*
X129770997Y-90818533D01*
X129783334Y-90777058D01*
X129787909Y-90760410D01*
X129790966Y-90742474D01*
X129792533Y-90723634D01*
X129792637Y-90704275D01*
X129791304Y-90684782D01*
X129788562Y-90665540D01*
X129784438Y-90646934D01*
X129778958Y-90629349D01*
X129772151Y-90613169D01*
X129768258Y-90605726D01*
X129764043Y-90598779D01*
X129759510Y-90592376D01*
X129754661Y-90586565D01*
X129749501Y-90581393D01*
X129744032Y-90576910D01*
X129738259Y-90573164D01*
X129732184Y-90570201D01*
X129725811Y-90568071D01*
X129719143Y-90566822D01*
X129712184Y-90566501D01*
X129704937Y-90567157D01*
X129697405Y-90568838D01*
X129689592Y-90571592D01*
X129681706Y-90574418D01*
X129674264Y-90577528D01*
X129667251Y-90580902D01*
X129660654Y-90584517D01*
X129654456Y-90588354D01*
X129648645Y-90592390D01*
X129643204Y-90596604D01*
X129638119Y-90600975D01*
X129633375Y-90605482D01*
X129628959Y-90610103D01*
X129624854Y-90614817D01*
X129621047Y-90619604D01*
X129617522Y-90624441D01*
X129614265Y-90629307D01*
X129608496Y-90639043D01*
X129603623Y-90648641D01*
X129599527Y-90657931D01*
X129596090Y-90666743D01*
X129593196Y-90674908D01*
X129588564Y-90688612D01*
X129586591Y-90693812D01*
X129584689Y-90697683D01*
X129572611Y-90733665D01*
X129548263Y-90818283D01*
X129518074Y-90935471D01*
X129488470Y-91069166D01*
X129475897Y-91137183D01*
X129465882Y-91203302D01*
X129459227Y-91265516D01*
X129456736Y-91321815D01*
X128702865Y-91321815D01*
X128737498Y-91164218D01*
X128794960Y-90952804D01*
X128862859Y-90740633D01*
X129026559Y-90316173D01*
X129131995Y-90088786D01*
X129814360Y-90088786D01*
X129815441Y-90124072D01*
X129819258Y-90162955D01*
X129826567Y-90204580D01*
X129831767Y-90226154D01*
X129838125Y-90248093D01*
X129845734Y-90270292D01*
X129854690Y-90292642D01*
X129865086Y-90315038D01*
X129877018Y-90337373D01*
X129890580Y-90359539D01*
X129905867Y-90381432D01*
X129922974Y-90402942D01*
X129941994Y-90423965D01*
X129963023Y-90444393D01*
X129986156Y-90464119D01*
X130011486Y-90483038D01*
X130039109Y-90501041D01*
X130069120Y-90518023D01*
X130101612Y-90533877D01*
X130136681Y-90548496D01*
X130174421Y-90561774D01*
X130449257Y-90642987D01*
X130637892Y-90696970D01*
X130709460Y-90715597D01*
X130770970Y-90729631D01*
X130826250Y-90739812D01*
X130879132Y-90746879D01*
X130892206Y-90747857D01*
X130904924Y-90747942D01*
X130917254Y-90747173D01*
X130929161Y-90745591D01*
X130940613Y-90743235D01*
X130951575Y-90740146D01*
X130962014Y-90736362D01*
X130971897Y-90731926D01*
X130981191Y-90726875D01*
X130989861Y-90721252D01*
X130997874Y-90715094D01*
X131005196Y-90708444D01*
X131011795Y-90701339D01*
X131017636Y-90693821D01*
X131022687Y-90685930D01*
X131026913Y-90677705D01*
X131030280Y-90669187D01*
X131032757Y-90660415D01*
X131034308Y-90651430D01*
X131034901Y-90642271D01*
X131034501Y-90632979D01*
X131033076Y-90623594D01*
X131030592Y-90614155D01*
X131027016Y-90604703D01*
X131022313Y-90595277D01*
X131016450Y-90585918D01*
X131009395Y-90576666D01*
X131001112Y-90567560D01*
X130991569Y-90558641D01*
X130980733Y-90549948D01*
X130968569Y-90541523D01*
X130955045Y-90533404D01*
X130928567Y-90521197D01*
X130893888Y-90508716D01*
X130852017Y-90495932D01*
X130803962Y-90482817D01*
X130693338Y-90455473D01*
X130570090Y-90426452D01*
X130442290Y-90395520D01*
X130318011Y-90362443D01*
X130259715Y-90345027D01*
X130205325Y-90326988D01*
X130155853Y-90308296D01*
X130112306Y-90288922D01*
X130104367Y-90283340D01*
X130096850Y-90277423D01*
X130089759Y-90271194D01*
X130083099Y-90264676D01*
X130076874Y-90257891D01*
X130071089Y-90250863D01*
X130065748Y-90243613D01*
X130060855Y-90236164D01*
X130056415Y-90228539D01*
X130052432Y-90220761D01*
X130048911Y-90212853D01*
X130045857Y-90204836D01*
X130043272Y-90196733D01*
X130041163Y-90188568D01*
X130039533Y-90180363D01*
X130038387Y-90172141D01*
X130037729Y-90163923D01*
X130037564Y-90155734D01*
X130037896Y-90147595D01*
X130038730Y-90139529D01*
X130040070Y-90131559D01*
X130041920Y-90123707D01*
X130044284Y-90115996D01*
X130047168Y-90108450D01*
X130050576Y-90101089D01*
X130054512Y-90093938D01*
X130058980Y-90087018D01*
X130063986Y-90080353D01*
X130069532Y-90073965D01*
X130075625Y-90067876D01*
X130082267Y-90062110D01*
X130089465Y-90056689D01*
X130101290Y-90050829D01*
X130114130Y-90045613D01*
X130142676Y-90037026D01*
X130174753Y-90030749D01*
X130210007Y-90026606D01*
X130248087Y-90024421D01*
X130288642Y-90024017D01*
X130331319Y-90025218D01*
X130375767Y-90027847D01*
X130421635Y-90031728D01*
X130468569Y-90036684D01*
X130564232Y-90049116D01*
X130659943Y-90063731D01*
X130752887Y-90079116D01*
X130795023Y-90090080D01*
X130834642Y-90100994D01*
X130906492Y-90120832D01*
X130938802Y-90128833D01*
X130968757Y-90134940D01*
X130982863Y-90137139D01*
X130996396Y-90138692D01*
X131009359Y-90139542D01*
X131021759Y-90139629D01*
X131039011Y-90137225D01*
X131055067Y-90134181D01*
X131069940Y-90130527D01*
X131083642Y-90126292D01*
X131096184Y-90121508D01*
X131107578Y-90116202D01*
X131117837Y-90110406D01*
X131126972Y-90104148D01*
X131134994Y-90097458D01*
X131141918Y-90090366D01*
X131147753Y-90082901D01*
X131152512Y-90075094D01*
X131156207Y-90066974D01*
X131158850Y-90058570D01*
X131160453Y-90049912D01*
X131161027Y-90041030D01*
X131160859Y-90035216D01*
X131160274Y-90029329D01*
X131159276Y-90023378D01*
X131157867Y-90017371D01*
X131156051Y-90011315D01*
X131153831Y-90005218D01*
X131151210Y-89999088D01*
X131148191Y-89992934D01*
X131144778Y-89986762D01*
X131140974Y-89980582D01*
X131136782Y-89974400D01*
X131132205Y-89968225D01*
X131127246Y-89962064D01*
X131121909Y-89955926D01*
X131116196Y-89949818D01*
X131110112Y-89943749D01*
X131103658Y-89937726D01*
X131096839Y-89931757D01*
X131089657Y-89925850D01*
X131082116Y-89920013D01*
X131074219Y-89914254D01*
X131065969Y-89908580D01*
X131048423Y-89897523D01*
X131029503Y-89886903D01*
X131009236Y-89876784D01*
X130987646Y-89867229D01*
X130964760Y-89858302D01*
X130865183Y-89832923D01*
X130756089Y-89808554D01*
X130642303Y-89786476D01*
X130528652Y-89767965D01*
X130419959Y-89754299D01*
X130368981Y-89749683D01*
X130321051Y-89746757D01*
X130276774Y-89745682D01*
X130236753Y-89746617D01*
X130201590Y-89749722D01*
X130171888Y-89755157D01*
X130119557Y-89768187D01*
X130065811Y-89783003D01*
X130039014Y-89791591D01*
X130012591Y-89801236D01*
X129986783Y-89812142D01*
X129961835Y-89824514D01*
X129937987Y-89838554D01*
X129915483Y-89854467D01*
X129904811Y-89863189D01*
X129894565Y-89872456D01*
X129884776Y-89882293D01*
X129875475Y-89892725D01*
X129866691Y-89903778D01*
X129858456Y-89915477D01*
X129850798Y-89927848D01*
X129843749Y-89940916D01*
X129837339Y-89954707D01*
X129831599Y-89969246D01*
X129826557Y-89984559D01*
X129822246Y-90000671D01*
X129817375Y-90032415D01*
X129815257Y-90057949D01*
X129814360Y-90088786D01*
X129131995Y-90088786D01*
X129221788Y-89895137D01*
X129441735Y-89481828D01*
X129545526Y-89306724D01*
X130184818Y-89306724D01*
X130185579Y-89322035D01*
X130187141Y-89335980D01*
X130189512Y-89348390D01*
X130192703Y-89359094D01*
X130196723Y-89367925D01*
X130199046Y-89371585D01*
X130201581Y-89374714D01*
X130204327Y-89377289D01*
X130207287Y-89379289D01*
X130210460Y-89380695D01*
X130213850Y-89381484D01*
X130236449Y-89385119D01*
X130275268Y-89394221D01*
X130391805Y-89425678D01*
X130712183Y-89519577D01*
X131155808Y-89655111D01*
X131175805Y-89658845D01*
X131186043Y-89660724D01*
X131196473Y-89662241D01*
X131207118Y-89663119D01*
X131212529Y-89663232D01*
X131218003Y-89663081D01*
X131223543Y-89662631D01*
X131229153Y-89661849D01*
X131234834Y-89660699D01*
X131240590Y-89659147D01*
X131246424Y-89657158D01*
X131252340Y-89654698D01*
X131258339Y-89651731D01*
X131264426Y-89648224D01*
X131270603Y-89644141D01*
X131276872Y-89639448D01*
X131283238Y-89634111D01*
X131289704Y-89628094D01*
X131296271Y-89621363D01*
X131302943Y-89613883D01*
X131309724Y-89605620D01*
X131316616Y-89596539D01*
X131323623Y-89586606D01*
X131330746Y-89575785D01*
X131337990Y-89564043D01*
X131345357Y-89551344D01*
X131364673Y-89518759D01*
X131382759Y-89486935D01*
X131399612Y-89455858D01*
X131415228Y-89425516D01*
X131429604Y-89395897D01*
X131442737Y-89366988D01*
X131454624Y-89338776D01*
X131465262Y-89311250D01*
X131474646Y-89284397D01*
X131482775Y-89258204D01*
X131489644Y-89232659D01*
X131495250Y-89207749D01*
X131499591Y-89183462D01*
X131502663Y-89159785D01*
X131504462Y-89136707D01*
X131504985Y-89114213D01*
X131504625Y-89099537D01*
X131503697Y-89085111D01*
X131502199Y-89070932D01*
X131500130Y-89056997D01*
X131497489Y-89043303D01*
X131495954Y-89036545D01*
X131494275Y-89029845D01*
X131492453Y-89023204D01*
X131490487Y-89016621D01*
X131488377Y-89010095D01*
X131486123Y-89003626D01*
X131481241Y-88996170D01*
X131475871Y-88988889D01*
X131470033Y-88981791D01*
X131463748Y-88974885D01*
X131457033Y-88968178D01*
X131449908Y-88961679D01*
X131442393Y-88955397D01*
X131434507Y-88949339D01*
X131426268Y-88943514D01*
X131417697Y-88937930D01*
X131399634Y-88927519D01*
X131380471Y-88918173D01*
X131360363Y-88909956D01*
X131339464Y-88902937D01*
X131317928Y-88897181D01*
X131295909Y-88892754D01*
X131273562Y-88889723D01*
X131262313Y-88888752D01*
X131251040Y-88888154D01*
X131239762Y-88887939D01*
X131228499Y-88888114D01*
X131217268Y-88888687D01*
X131206091Y-88889668D01*
X131194986Y-88891064D01*
X131183972Y-88892883D01*
X131165145Y-88897763D01*
X131146851Y-88902950D01*
X131112235Y-88913902D01*
X131080876Y-88925052D01*
X131053530Y-88935714D01*
X131030948Y-88945201D01*
X131013886Y-88952828D01*
X130999332Y-88959753D01*
X130997654Y-88946826D01*
X130995261Y-88934124D01*
X130992167Y-88921655D01*
X130988387Y-88909424D01*
X130983936Y-88897441D01*
X130978829Y-88885710D01*
X130973081Y-88874239D01*
X130966706Y-88863036D01*
X130959721Y-88852107D01*
X130952140Y-88841459D01*
X130943977Y-88831099D01*
X130935249Y-88821034D01*
X130925969Y-88811271D01*
X130916153Y-88801817D01*
X130905816Y-88792679D01*
X130894973Y-88783864D01*
X130883639Y-88775379D01*
X130871829Y-88767231D01*
X130859557Y-88759426D01*
X130846840Y-88751973D01*
X130833691Y-88744877D01*
X130820126Y-88738146D01*
X130806160Y-88731786D01*
X130791807Y-88725806D01*
X130777083Y-88720211D01*
X130762003Y-88715008D01*
X130746582Y-88710206D01*
X130730835Y-88705810D01*
X130698421Y-88698265D01*
X130664882Y-88692431D01*
X130647883Y-88690528D01*
X130630958Y-88689773D01*
X130614115Y-88690158D01*
X130597365Y-88691672D01*
X130580717Y-88694308D01*
X130564181Y-88698055D01*
X130547768Y-88702904D01*
X130531488Y-88708847D01*
X130515350Y-88715873D01*
X130499364Y-88723974D01*
X130483541Y-88733140D01*
X130467890Y-88743362D01*
X130452421Y-88754631D01*
X130437144Y-88766938D01*
X130422070Y-88780273D01*
X130407208Y-88794627D01*
X130392568Y-88809991D01*
X130378160Y-88826356D01*
X130363995Y-88843712D01*
X130350081Y-88862050D01*
X130336429Y-88881361D01*
X130323050Y-88901636D01*
X130309952Y-88922865D01*
X130297147Y-88945039D01*
X130284643Y-88968149D01*
X130272451Y-88992186D01*
X130249043Y-89043002D01*
X130227002Y-89097414D01*
X130206408Y-89155348D01*
X130201107Y-89175500D01*
X130196531Y-89195638D01*
X130192688Y-89215594D01*
X130189589Y-89235200D01*
X130187243Y-89254284D01*
X130185660Y-89272679D01*
X130184848Y-89290216D01*
X130184818Y-89306724D01*
X129545526Y-89306724D01*
X129679590Y-89080546D01*
X129928543Y-88695592D01*
X130181782Y-88331267D01*
X130432497Y-87991873D01*
X130899115Y-87405077D01*
X131273911Y-86969614D01*
X131502402Y-86719890D01*
X131503973Y-86718348D01*
X131505600Y-86716984D01*
X131507277Y-86715794D01*
X131508996Y-86714775D01*
X131510750Y-86713922D01*
X131512532Y-86713233D01*
X131514336Y-86712702D01*
X131516154Y-86712327D01*
X131517978Y-86712103D01*
X131519803Y-86712027D01*
X131521621Y-86712094D01*
G37*
G36*
X130664445Y-88881916D02*
G01*
X130683655Y-88886002D01*
X130703639Y-88892883D01*
X130710492Y-88895827D01*
X130717050Y-88898923D01*
X130723316Y-88902168D01*
X130729296Y-88905556D01*
X130734995Y-88909085D01*
X130740417Y-88912749D01*
X130745567Y-88916546D01*
X130750451Y-88920471D01*
X130755072Y-88924520D01*
X130759436Y-88928689D01*
X130763548Y-88932973D01*
X130767413Y-88937370D01*
X130771034Y-88941875D01*
X130774418Y-88946484D01*
X130777569Y-88951193D01*
X130780491Y-88955997D01*
X130783190Y-88960894D01*
X130785671Y-88965879D01*
X130787938Y-88970947D01*
X130789996Y-88976095D01*
X130791851Y-88981319D01*
X130793506Y-88986615D01*
X130794967Y-88991979D01*
X130796238Y-88997406D01*
X130798232Y-89008437D01*
X130799526Y-89019674D01*
X130800160Y-89031086D01*
X130800171Y-89042641D01*
X130798605Y-89064981D01*
X130795183Y-89087500D01*
X130790176Y-89109975D01*
X130783854Y-89132182D01*
X130776486Y-89153897D01*
X130768342Y-89174897D01*
X130759693Y-89194959D01*
X130750808Y-89213858D01*
X130733411Y-89247275D01*
X130718311Y-89273359D01*
X130703639Y-89296373D01*
X130381230Y-89219117D01*
X130383477Y-89218080D01*
X130386095Y-89214760D01*
X130392497Y-89201946D01*
X130410342Y-89156367D01*
X130435623Y-89093210D01*
X130451321Y-89058425D01*
X130469200Y-89023308D01*
X130489368Y-88989212D01*
X130500343Y-88972970D01*
X130511931Y-88957492D01*
X130524145Y-88942946D01*
X130536998Y-88929501D01*
X130550504Y-88917328D01*
X130564675Y-88906595D01*
X130579527Y-88897471D01*
X130595071Y-88890125D01*
X130611321Y-88884728D01*
X130628292Y-88881448D01*
X130645995Y-88880454D01*
X130664445Y-88881916D01*
G37*
G36*
X131401414Y-96113965D02*
G01*
X131437888Y-96117613D01*
X131453333Y-96120456D01*
X131466653Y-96124040D01*
X131477652Y-96128411D01*
X131486133Y-96133614D01*
X131491899Y-96139697D01*
X131494753Y-96146704D01*
X131494904Y-96147711D01*
X131494998Y-96148734D01*
X131495036Y-96149775D01*
X131495017Y-96150834D01*
X131494942Y-96151910D01*
X131494809Y-96153003D01*
X131494617Y-96154115D01*
X131494368Y-96155244D01*
X131494059Y-96156392D01*
X131493691Y-96157558D01*
X131493263Y-96158742D01*
X131492774Y-96159945D01*
X131492224Y-96161167D01*
X131491614Y-96162407D01*
X131490941Y-96163667D01*
X131490206Y-96164945D01*
X130995869Y-96504769D01*
X130935770Y-96152750D01*
X131021112Y-96140577D01*
X131108887Y-96129785D01*
X131209930Y-96119786D01*
X131261489Y-96116006D01*
X131311640Y-96113530D01*
X131358807Y-96112727D01*
X131401414Y-96113965D01*
G37*
G36*
X132866166Y-98985814D02*
G01*
X132869987Y-98986078D01*
X132873700Y-98986562D01*
X132877291Y-98987276D01*
X132880746Y-98988231D01*
X132884052Y-98989437D01*
X132887196Y-98990906D01*
X132890163Y-98992647D01*
X132892940Y-98994671D01*
X132895514Y-98996989D01*
X132897871Y-98999612D01*
X132899997Y-99002550D01*
X132901879Y-99005813D01*
X132903504Y-99009413D01*
X132904857Y-99013359D01*
X132905925Y-99017663D01*
X132906695Y-99022335D01*
X132907202Y-99027123D01*
X132907498Y-99031767D01*
X132907597Y-99036267D01*
X132907510Y-99040623D01*
X132907251Y-99044833D01*
X132906832Y-99048898D01*
X132906266Y-99052816D01*
X132905566Y-99056587D01*
X132904745Y-99060211D01*
X132903815Y-99063687D01*
X132902790Y-99067014D01*
X132901681Y-99070193D01*
X132900502Y-99073221D01*
X132899266Y-99076100D01*
X132897985Y-99078827D01*
X132896672Y-99081403D01*
X132895339Y-99083828D01*
X132894000Y-99086100D01*
X132892667Y-99088219D01*
X132891354Y-99090185D01*
X132888834Y-99093653D01*
X132886544Y-99096501D01*
X132884585Y-99098723D01*
X132883059Y-99100316D01*
X132881716Y-99101596D01*
X132820253Y-99144605D01*
X132673352Y-99229023D01*
X132452064Y-99346358D01*
X132167440Y-99488118D01*
X131830532Y-99645811D01*
X131452390Y-99810946D01*
X131044066Y-99975031D01*
X130616610Y-100129574D01*
X130400322Y-100199380D01*
X130185784Y-100262089D01*
X129974481Y-100318051D01*
X129767897Y-100367614D01*
X129567518Y-100411127D01*
X129374830Y-100448939D01*
X129191318Y-100481399D01*
X129018466Y-100508856D01*
X128710688Y-100550155D01*
X128463379Y-100575627D01*
X128288420Y-100588064D01*
X128197694Y-100590255D01*
X128197694Y-100198717D01*
X128443607Y-100197408D01*
X128692220Y-100188559D01*
X129005429Y-100167835D01*
X129368854Y-100130428D01*
X129564903Y-100103966D01*
X129768113Y-100071530D01*
X129976686Y-100032518D01*
X130188825Y-99986331D01*
X130402732Y-99932366D01*
X130616610Y-99870023D01*
X130828155Y-99801846D01*
X131035445Y-99731376D01*
X131237249Y-99659502D01*
X131432335Y-99587117D01*
X131619473Y-99515111D01*
X131797431Y-99444374D01*
X132120887Y-99310272D01*
X132392853Y-99191939D01*
X132603483Y-99096500D01*
X132801340Y-99002811D01*
X132808873Y-98999244D01*
X132816786Y-98995919D01*
X132824970Y-98992921D01*
X132833318Y-98990336D01*
X132841719Y-98988248D01*
X132845907Y-98987417D01*
X132850067Y-98986742D01*
X132854187Y-98986233D01*
X132858252Y-98985902D01*
X132862250Y-98985759D01*
X132866166Y-98985814D01*
G37*
G36*
X131168683Y-89083297D02*
G01*
X131182886Y-89085533D01*
X131189013Y-89086991D01*
X131194871Y-89088610D01*
X131200464Y-89090387D01*
X131205796Y-89092320D01*
X131210873Y-89094406D01*
X131215697Y-89096642D01*
X131220274Y-89099026D01*
X131224607Y-89101555D01*
X131228702Y-89104226D01*
X131232562Y-89107038D01*
X131236191Y-89109986D01*
X131239595Y-89113070D01*
X131242777Y-89116286D01*
X131245741Y-89119632D01*
X131248493Y-89123104D01*
X131251036Y-89126702D01*
X131253374Y-89130420D01*
X131255513Y-89134259D01*
X131257455Y-89138214D01*
X131259207Y-89142283D01*
X131260771Y-89146463D01*
X131262152Y-89150752D01*
X131263355Y-89155148D01*
X131264383Y-89159647D01*
X131265242Y-89164248D01*
X131265935Y-89168947D01*
X131266842Y-89178631D01*
X131267139Y-89188677D01*
X131266861Y-89199066D01*
X131265711Y-89212893D01*
X131263740Y-89227208D01*
X131261020Y-89241967D01*
X131257624Y-89257125D01*
X131253626Y-89272639D01*
X131249098Y-89288465D01*
X131238747Y-89320874D01*
X131190793Y-89454141D01*
X130915719Y-89336680D01*
X130920935Y-89324511D01*
X130935987Y-89292713D01*
X130946923Y-89271663D01*
X130959983Y-89248356D01*
X130975056Y-89223676D01*
X130992031Y-89198506D01*
X131010795Y-89173730D01*
X131020813Y-89161766D01*
X131031237Y-89150231D01*
X131042053Y-89139237D01*
X131053246Y-89128893D01*
X131064804Y-89119311D01*
X131076711Y-89110599D01*
X131088953Y-89102870D01*
X131101518Y-89096233D01*
X131114391Y-89090798D01*
X131127558Y-89086677D01*
X131141005Y-89083980D01*
X131154718Y-89082816D01*
X131168683Y-89083297D01*
G37*
M02*
